<?xml version="1.0" standalone="no"?>
<!DOCTYPE svg PUBLIC "-//W3C//DTD SVG 1.1//EN" "http://www.w3.org/Graphics/SVG/1.1/DTD/svg11.dtd" >
<svg xmlns="http://www.w3.org/2000/svg">
<metadata>
This is a custom SVG webfont generated by Font Squirrel.
Designer    : Philipp H. Poll
Foundry     : Philipp H. Poll
Foundry URL : http://linuxlibertine.sf.net
</metadata>
<defs>
<font id="webfontJjWfqmnc" horiz-adv-x="901" >
<font-face units-per-em="2048" ascent="1638" descent="-410" />
<missing-glyph horiz-adv-x="512" />
<glyph unicode=" "  horiz-adv-x="512" />
<glyph unicode="&#x09;" horiz-adv-x="512" />
<glyph unicode="&#xa0;" horiz-adv-x="512" />
<glyph unicode="!" horiz-adv-x="464" d="M123 88q0 44 32 76.5t76 32.5q45 0 77 -32.5t32 -76.5t-32 -76t-77 -32q-44 0 -76 32t-32 76zM231 1348q46 0 80.5 -39t34.5 -111q0 -75 -23 -203t-30 -192q-12 -97 -19 -183.5t-10 -134t-4 -55.5q-4 -41 -29 -41q-24 0 -28 27q-1 13 -5.5 78.5t-11.5 152t-14 156.5 q-7 72 -29 194t-22 201q0 75 34.5 112.5t75.5 37.5z" />
<glyph unicode="&#x22;" horiz-adv-x="688" d="M182 872q-53 326 -53 345q0 36 30.5 69t73.5 33q37 0 54.5 -20t17.5 -48q0 -14 -16.5 -106.5t-33.5 -178.5l-17 -85zM440 874q-53 326 -53 345q0 36 30.5 69t74.5 33q37 0 54 -20t17 -48q0 -14 -16.5 -106.5t-33.5 -178.5l-17 -85z" />
<glyph unicode="#" horiz-adv-x="897" d="M545 473l35 225h-226l-37 -225h228zM647 698l-37 -225h185l-15 -98h-182l-57 -348h-68l53 348h-223l-57 -348h-68l55 348h-184l14 98h187l35 225h-185l17 101h184l55 348h70l-57 -348h227l53 348h68l-55 -348h186l-17 -101h-184z" />
<glyph unicode="$" horiz-adv-x="897" d="M186 20q-14 0 -30.5 -11t-40.5 -11q0 78 -31 301l53 6q27 -101 96.5 -175t169.5 -85v496q-48 22 -79.5 38.5t-80 49.5t-78 67t-51.5 85t-22 108q0 63 29 116t75.5 86t99.5 53t107 25v115h70v-113q40 -2 124.5 -11t113.5 -5q3 -67 41 -293l-54 -8l-10 37 q-30 103 -81 155.5t-134 61.5v-438q344 -126 344 -351q0 -20 -1.5 -39.5t-9.5 -54t-21 -64.5t-39 -63.5t-61 -58t-90 -42.5t-122 -22v-141h-70v141q-63 5 -132 25t-85 20zM473 514v-469q34 5 65.5 18.5t62.5 37.5t50 65t19 94q0 58 -17.5 103t-50.5 74t-61.5 45.5 t-67.5 31.5zM403 698v410q-76 -11 -128 -67.5t-52 -143.5q0 -115 180 -199z" />
<glyph unicode="%" horiz-adv-x="1304" d="M885 158q0 -73 28 -105.5t64 -32.5q53 0 97.5 52.5t66.5 121t22 128.5q0 37 -10 63.5t-25.5 38.5t-29.5 17t-27 5q-47 0 -91.5 -48t-69.5 -114.5t-25 -125.5zM778 186q0 122 80.5 224t190.5 102q73 0 124.5 -43t51.5 -143q0 -55 -17.5 -116.5t-48.5 -118t-82.5 -93.5 t-111.5 -37q-88 0 -137.5 68.5t-49.5 156.5zM745 1055q82 0 166.5 24.5t141.5 85.5l77 -14l-845 -1180l-76 19l737 1028q-95 -39 -221 -39q-36 0 -85.5 13t-78.5 30q6 -24 6 -51q0 -52 -17.5 -113t-48.5 -118t-83 -94.5t-113 -37.5q-60 0 -103.5 34.5t-62 83.5t-18.5 105 q0 121 80.5 223.5t187.5 102.5q41 0 81 -16t56 -35q111 -51 219 -51zM225 803q0 -72 28.5 -103.5t63.5 -31.5q53 0 97.5 51t67 119.5t22.5 130.5q0 67 -28 95t-64 28q-48 0 -92.5 -47.5t-69.5 -114.5t-25 -127z" />
<glyph unicode="&#x26;" horiz-adv-x="1443" d="M512 692q-150 -83 -205 -169t-55 -204q0 -141 69 -208.5t175 -67.5q53 0 95 13.5t80.5 46t67 66t72.5 93.5q-80 105 -179.5 249.5t-119.5 180.5zM862 193q-76 -106 -167 -162t-214 -56q-85 0 -154 19t-123 59t-84 107.5t-30 158.5q0 123 88.5 229.5t288.5 219.5 q-102 176 -102 291q0 100 84.5 180t228.5 80q110 0 185 -60t75 -155q0 -82 -84.5 -174.5t-218.5 -169.5l8 -17q63 -108 250 -360q209 310 209 395q0 33 -33 33h-57q-11 0 -11 14v35l3 4q108 -4 178 -4l178 4l4 -4v-33q0 -16 -18 -16h-58q-45 0 -77.5 -39.5t-94.5 -153.5 q-92 -180 -174 -305l70 -94q45 -64 88 -98.5t69 -34.5q51 0 88 27.5t68 87.5l33 -17q-34 -102 -88.5 -155.5t-112.5 -53.5q-29 0 -51 4t-53 17t-64 43.5t-67 77.5zM590 842q97 64 154 135t57 127q0 69 -35 107t-98 38q-22 0 -47.5 -10.5t-50.5 -31.5t-41.5 -58.5 t-16.5 -85.5q0 -74 78 -221z" />
<glyph unicode="'" horiz-adv-x="389" d="M162 872q-53 326 -53 345q0 36 30.5 69t73.5 33q37 0 54.5 -20t17.5 -48q0 -14 -17 -107l-34 -178l-17 -85z" />
<glyph unicode="(" horiz-adv-x="604" d="M90 516q0 275 120.5 520.5t313.5 411.5l37 -37l-59 -71q-26 -33 -77 -120.5t-85.5 -178.5t-62 -232t-27.5 -293t27 -293.5t61.5 -234t84 -178t78.5 -122t60 -71.5l-37 -35q-87 76 -157.5 164t-115 166t-77 164t-48 149t-24.5 130.5t-10.5 98.5t-1.5 62z" />
<glyph unicode=")" horiz-adv-x="604" d="M516 516q0 -275 -120.5 -521t-313.5 -411l-37 37q21 23 38.5 45t51.5 71t60.5 99t58 126t52.5 155.5t35.5 184t14.5 214.5q0 152 -26.5 293t-61.5 234t-84 178t-78.5 122.5t-60.5 71.5l37 35q87 -76 157.5 -164t115 -166t77 -164t48 -149t24.5 -130.5t10.5 -98.5t1.5 -62 z" />
<glyph unicode="*" horiz-adv-x="886" d="M406 1161q-36 8 -87 8q-82 0 -123.5 16.5t-41.5 59.5q0 25 16.5 43.5t50.5 18.5q30 0 59 -17.5t65.5 -45t72.5 -42.5q-4 41 -25.5 101.5t-21.5 87.5q0 33 17 56t44 23q30 0 49 -18t19 -53q0 -29 -18.5 -99.5t-20.5 -99.5q37 16 74 44.5t64 45.5t56 17q37 0 53.5 -20 t16.5 -42q0 -76 -141 -76q-64 0 -113 -8q25 -28 72 -58.5t72.5 -57t25.5 -62.5q0 -26 -18 -42.5t-41 -16.5q-36 0 -59.5 33t-46.5 93.5t-40 86.5q-15 -27 -39.5 -91t-46.5 -93t-57 -29q-26 0 -43 16.5t-17 40.5q0 39 27 65.5t74 56.5t72 58z" />
<glyph unicode="+" horiz-adv-x="1079" d="M592 526h352v-100h-352v-356h-105v356h-352v100h352v357h105v-357z" />
<glyph unicode="," horiz-adv-x="450" d="M213 195q61 0 98 -55.5t37 -147.5q0 -102 -73.5 -174t-172.5 -90q-20 17 -10 51q74 18 125 71t51 91q0 55 -73 63q-91 15 -91 90q0 44 31 72.5t78 28.5z" />
<glyph unicode="-" horiz-adv-x="681" d="M561 444h-463q-13 0 -21.5 10.5t-8.5 24.5q0 25 16.5 50.5t34.5 25.5h469q28 0 28 -37q0 -19 -18 -46.5t-37 -27.5z" />
<glyph unicode="." horiz-adv-x="450" d="M117 88q0 44 32 76.5t76 32.5q45 0 77 -32.5t32 -76.5t-32 -76t-77 -32q-44 0 -76 32t-32 76z" />
<glyph unicode="/" horiz-adv-x="595" d="M578 1397l-486 -1440h-84l486 1440h84z" />
<glyph unicode="0" d="M451 1112q-30 0 -56.5 -12t-55.5 -49t-49.5 -97t-34 -164t-13.5 -241q0 -49 2.5 -96.5t9.5 -108.5t21.5 -111t36 -94t55.5 -69t77 -25q17 0 36.5 6.5t45.5 23.5t50.5 55.5t39.5 94.5q37 136 37 400q0 182 -33.5 297.5t-82.5 158.5q-34 31 -86 31zM442 -23q-106 0 -191 83 t-130 217.5t-45 291.5q0 139 31.5 257t84 195t119.5 120t140 43q64 0 126.5 -37t108.5 -98q131 -172 131 -461q0 -131 -25 -238t-64 -174.5t-89.5 -114t-99.5 -65.5t-97 -19z" />
<glyph unicode="1" d="M387 977q-46 0 -174 -57l-25 63q157 73 232 111.5t149 89.5q10 -5 11 -10v-1016q0 -57 14 -75t63 -20l107 -4q16 0 16 -16v-43l-4 -4l-276 4l-281 -4l-4 4v43q0 5 4.5 10.5t11.5 5.5l123 4q28 1 44 7t23.5 20t9 27.5t1.5 40.5v700v34q0 11 -1.5 27.5t-4 24.5t-7.5 17 t-13 12.5t-19 3.5z" />
<glyph unicode="2" d="M121 907q0 45 21.5 92.5t61 89.5t104 68.5t141.5 26.5q62 0 121 -17.5t110.5 -51.5t83 -92.5t31.5 -133.5q0 -53 -13.5 -98.5t-44 -89t-58.5 -73.5t-79 -79l-194 -189q-15 -14 -44.5 -47t-66.5 -93t-37 -101h348q53 0 83.5 32t51.5 115l52 -8l-41 -258h-633q0 49 6 84.5 t26.5 83t63.5 103t113 126.5l143 142q86 87 124 167.5t38 174.5q0 66 -20.5 115.5t-52.5 74.5t-63.5 37t-60.5 12q-95 0 -137.5 -38t-42.5 -85q0 -17 8 -47q8 -28 8 -45q0 -36 -22.5 -55t-50.5 -19q-33 0 -55.5 22.5t-22.5 53.5z" />
<glyph unicode="3" d="M444 1120q-24 0 -53.5 -7t-64.5 -22t-58.5 -47.5t-23.5 -76.5q0 -36 -16.5 -68.5t-53.5 -32.5q-24 0 -38 16.5t-16.5 29t-2.5 20.5q0 21 10.5 50.5t38 65.5t67 65.5t105.5 50t147 20.5q71 0 124 -20.5t80.5 -53t40.5 -66t13 -67.5q0 -144 -200 -270q47 -8 90.5 -28.5 t84.5 -56t66 -95.5t25 -136q0 -130 -61.5 -225t-159 -140.5t-215.5 -45.5q-61 0 -124.5 15.5t-110 46t-46.5 67.5q0 24 21.5 44.5t50.5 20.5q27 0 43 -11.5t33 -35.5q14 -23 28.5 -38.5t49 -30.5t79.5 -15q23 0 52.5 8t66 31t66 57.5t49.5 93t20 132.5q0 253 -258 253 q-19 0 -63 -8l-8 62q111 18 196.5 108t85.5 166q0 83 -46.5 128.5t-113.5 45.5z" />
<glyph unicode="4" d="M834 406q28 0 28 -31q0 -18 -18 -40t-37 -22h-137v-166q0 -46 13 -65.5t54 -22.5l56 -4q14 0 14 -14v-41l-4 -4q-129 4 -213 4l-215 -4l-4 4v41q0 14 14 14l55 4q47 3 68.5 23.5t21.5 64.5v166h-380q-64 0 -82 82q0 2 4 6q89 99 235.5 352.5t227.5 420.5q5 10 14 10 q2 0 15 -5t29.5 -10.5t27.5 -7.5q-122 -291 -414 -755h323v321q0 30 21 41q48 35 90 35q19 0 24 -14.5t5 -49.5v-333h164z" />
<glyph unicode="5" d="M627 346q0 151 -66.5 233.5t-167.5 82.5q-130 0 -246 -48l66 560q107 -11 209 -11q141 0 319 21l13 -6l-31 -134q-100 -10 -203 -10q-99 0 -233 17l-39 -324q83 31 196 31q104 0 183.5 -55.5t118 -140.5t38.5 -181q0 -173 -110 -287t-283 -114q-60 0 -126 19t-113.5 53.5 t-47.5 72.5q0 28 20.5 46.5t49.5 18.5q46 0 92 -63q27 -37 56 -57.5t73 -20.5q100 0 166 82.5t66 214.5z" />
<glyph unicode="6" d="M246 537q-2 -21 -2 -72q0 -99 16.5 -176t41.5 -123t59.5 -75.5t66.5 -40.5t66 -11q78 0 130 73.5t52 223.5q0 33 -5 67.5t-21 76.5t-40.5 74t-68 53.5t-99.5 21.5q-110 0 -196 -92zM776 1130q-108 -10 -192 -42.5t-154 -100.5q-144 -141 -178 -393q35 42 103.5 71 t127.5 29q86 0 152 -27.5t101.5 -66t57.5 -89.5t28.5 -88.5t6.5 -72.5q0 -46 -9.5 -92.5t-35 -97.5t-63.5 -90t-102.5 -64.5t-145.5 -25.5q-50 0 -97.5 11.5t-101 44.5t-93 85.5t-65.5 142.5t-26 207q0 144 53.5 277t157.5 237q98 99 207.5 145t261.5 54z" />
<glyph unicode="7" d="M332 1042q-24 0 -38.5 -1t-37 -8.5t-37.5 -22t-31.5 -42.5t-27.5 -69l-54 6q29 170 31 279q0 6 8 6q10 -2 34.5 -14.5t62.5 -12.5h399q81 0 150 21l30 -23q-256 -624 -442 -1179l-133 -7l-6 13q133 299 438 1054h-346z" />
<glyph unicode="8" d="M457 1135q-83 0 -132 -55t-49 -128q0 -36 7.5 -64t39 -69t89.5 -78l59 -36q25 18 49 39.5t53 53t46.5 69.5t17.5 75q0 76 -46 134.5t-134 58.5zM764 940q0 -44 -21 -87t-59 -80.5t-68.5 -61.5t-72.5 -52l119 -77q151 -100 151 -269q0 -57 -23.5 -114.5t-68 -107 t-118.5 -80.5t-165 -31q-158 0 -252 78.5t-94 224.5q0 134 113 233q86 75 141 117l-35 20q-89 56 -130.5 118.5t-41.5 143.5q0 115 91 192t237 77q139 0 218 -68.5t79 -175.5zM442 37q29 0 58.5 5.5t62.5 22t57.5 42t41 68.5t16.5 99q0 154 -172 258l-90 56 q-58 -39 -100 -85.5t-61.5 -88.5t-27.5 -73.5t-8 -57.5q0 -62 22 -111.5t56.5 -77.5t72 -42.5t72.5 -14.5z" />
<glyph unicode="9" d="M647 627q2 20 2 71q0 99 -16.5 176t-41.5 123t-59.5 75.5t-66.5 40.5t-66 11q-78 0 -130 -73.5t-52 -223.5q0 -33 5 -67.5t21 -76.5t40.5 -73.5t68 -53t99.5 -21.5q110 0 196 92zM117 33q108 10 192 42.5t154 100.5q142 139 178 393q-35 -42 -103.5 -71t-127.5 -29 q-86 0 -152 27.5t-102 66t-58 89.5t-28.5 88.5t-6.5 72.5q0 46 9.5 92.5t35 98t64 90.5t103 64.5t145.5 25.5q50 0 97.5 -11.5t101 -45t93 -85.5t65.5 -142.5t26 -207.5q0 -144 -53.5 -277t-157.5 -237q-97 -99 -207 -144.5t-262 -53.5z" />
<glyph unicode=":" horiz-adv-x="450" d="M131 188q0 45 32 77t77 32q44 0 76 -32t32 -77q0 -44 -32 -76t-76 -32q-45 0 -77 32t-32 76zM131 727q0 44 32 76.5t77 32.5q44 0 76 -32.5t32 -76.5t-32 -76.5t-76 -32.5q-45 0 -77 32.5t-32 76.5z" />
<glyph unicode=";" horiz-adv-x="450" d="M213 195q61 0 98 -55.5t37 -147.5q0 -102 -73.5 -174t-172.5 -90q-20 17 -10 51q74 18 125 71t51 91q0 55 -73 63q-91 15 -91 90q0 44 31 72.5t78 28.5zM111 727q0 44 32 76.5t76 32.5q45 0 77 -32.5t32 -76.5t-32 -76.5t-77 -32.5q-44 0 -76 32.5t-32 76.5z" />
<glyph unicode="&#x3c;" horiz-adv-x="997" d="M250 489l649 -237v-102l-799 290v99l799 288v-102z" />
<glyph unicode="=" horiz-adv-x="1079" d="M944 651v-100h-809v100h809zM944 395v-100h-809v100h809z" />
<glyph unicode="&#x3e;" horiz-adv-x="997" d="M750 483l-650 238v102l799 -291v-98l-799 -289v103z" />
<glyph unicode="?" horiz-adv-x="829" d="M199 1171q0 -38 12 -53t12 -49q0 -33 -24 -52.5t-56 -19.5q-31 0 -57.5 20.5t-26.5 67.5q0 102 105 185q93 80 254 80q156 0 247 -84.5t91 -225.5q0 -46 -14.5 -89t-33.5 -73t-52 -63t-56 -51l-61 -45q-86 -64 -107 -103q-37 -73 -37 -149v-90q0 -21 -26 -21 q-27 0 -27 21v94q0 42 3.5 73t15.5 76.5t42 91t76 89.5q66 61 94.5 111.5t28.5 119.5q0 102 -59.5 179t-145.5 77q-85 0 -141.5 -34.5t-56.5 -82.5zM260 88q0 44 32 76.5t77 32.5q44 0 76 -32.5t32 -76.5t-32 -76t-76 -32q-45 0 -77 32t-32 76z" />
<glyph unicode="@" horiz-adv-x="1832" d="M1165 647q0 57 -38 93t-95 36q-36 0 -90 -20t-94 -62q-139 -138 -139 -362q0 -189 159 -189q53 0 120 76.5t116 190.5q61 148 61 237zM1194 152q0 -14 8 -19.5t15 -5.5q82 0 141.5 21t105.5 69.5t69 134.5t23 211q0 122 -39.5 227t-103.5 177t-145.5 123.5t-165 75.5 t-162.5 24q-96 0 -188 -25t-177 -80.5t-149 -135.5t-102.5 -197t-38.5 -258q0 -99 19.5 -197t69.5 -199.5t125 -178.5t196.5 -126t273.5 -49q242 0 411 135l27 -37q-108 -83 -213 -124.5t-264 -41.5q-180 0 -332.5 60.5t-256.5 165.5t-162 248.5t-58 306.5q0 162 67 309 t179.5 253.5t268 169t325.5 62.5q162 0 303.5 -51.5t240.5 -141t156 -214t57 -266.5q0 -61 -13 -120t-40.5 -119t-74.5 -110.5t-110 -90t-153.5 -61.5t-198.5 -22q-40 0 -56.5 26t-16.5 58q0 33 30 129l-4 2q-63 -105 -137.5 -158t-134.5 -53q-72 0 -124.5 27.5t-78 70 t-36.5 81.5t-11 75q0 106 44 205.5t113 168.5t154 111t166 42q52 0 97.5 -24.5t60.5 -63.5l10 49l109 26l30 -10l-122 -528q-27 -116 -27 -137z" />
<glyph unicode="A" horiz-adv-x="1423" d="M539 580h356l-201 546h-2l-205 -520q-6 -14 9 -20t43 -6zM311 162q-16 -40 5.5 -69t76.5 -34l60 -4q16 0 16 -16v-39l-4 -4q-223 4 -272 4l-185 -4l-4 4v39q0 16 16 16q75 5 117 33.5t82 120.5l455 1065q14 32 33.5 53t37.5 21q16 0 28 -14.5t26 -47.5l420 -1110 q21 -59 55 -85.5t96 -33.5l23 -2q20 0 20 -16v-39l-6 -4q-158 4 -238 4l-272 -4l-2 4v39q0 16 14 16l58 4q59 5 80 25.5t6 62.5l-125 347h-426q-36 0 -50 -7.5t-22 -27.5z" />
<glyph unicode="B" horiz-adv-x="1191" d="M383 1165v-415h152q294 0 294 235q0 74 -25 129t-66.5 84t-85.5 42t-91 13q-45 0 -75 -1.5t-50 -7t-30.5 -10t-15.5 -17t-6 -22t-1 -30.5zM383 680v-520q0 -53 33.5 -73.5t136.5 -20.5q113 0 189 20.5t115 60t54 85t15 106.5q0 146 -94.5 244t-266.5 98h-182zM35 39 q0 16 14 16l62 4q67 5 86.5 19.5t19.5 66.5v1031q0 51 -19.5 66t-86.5 20l-62 4q-14 0 -14 14v41l4 2q158 -2 260 -2q51 0 133 1t115 1q440 0 440 -313q0 -82 -54.5 -157.5t-135.5 -115.5q143 -41 227 -130.5t84 -229.5q0 -56 -14 -107.5t-51 -102.5t-93.5 -88t-148 -60 t-209.5 -23q-99 0 -171.5 2t-121.5 2l-260 -4l-4 4v39z" />
<glyph unicode="C" horiz-adv-x="1318" d="M727 -20q-128 0 -236 37.5t-183.5 101.5t-128.5 149.5t-78 180.5t-25 196q0 148 54.5 280t144.5 224t209 145.5t245 53.5q86 0 160 -13.5t115.5 -30t89 -32t84.5 -17.5q10 -142 45 -317l-62 -8q-103 342 -454 342q-51 0 -109.5 -20.5t-120 -67.5t-111 -113t-81 -167 t-31.5 -220q0 -91 18 -179.5t56.5 -168.5t93 -140.5t133 -96.5t170.5 -36q143 0 255 52.5t220 171.5l47 -31q-104 -136 -237 -206t-283 -70z" />
<glyph unicode="D" horiz-adv-x="1427" d="M35 37q0 18 14 18l62 4q55 3 80.5 24t25.5 69v1019q0 54 -20 70t-86 21l-58 4q-18 0 -18 16v37l4 4q50 0 129 -1t129 -1q65 0 168 1t168 1q193 0 355.5 -93t256.5 -252t94 -347q0 -105 -22 -193.5t-60 -153t-91 -115t-111.5 -82.5t-126 -53t-130.5 -29.5t-128 -8.5 q-114 0 -211.5 2t-161.5 2q-168 0 -258 -4l-4 4v37zM383 147q0 -35 14.5 -50.5t61 -23t147.5 -7.5q92 0 168 13.5t148 49t121 92.5t78.5 148.5t29.5 212.5q0 99 -19 191.5t-64 180.5t-112 153.5t-170 105.5t-231 40q-44 0 -70.5 -2t-52 -9.5t-37.5 -23.5t-12 -42v-1029z" />
<glyph unicode="E" horiz-adv-x="1124" d="M911 1323q3 -14 20.5 -126.5t24.5 -170.5l-59 -10q-16 49 -27.5 78t-30.5 60.5t-41.5 47.5t-56.5 26.5t-79 10.5h-216q-38 0 -55.5 -14.5t-17.5 -50.5v-435h260q52 0 74.5 20.5t27.5 65.5l6 52q0 6 4.5 11t10.5 5h45q8 0 8 -8q-8 -109 -8 -176l8 -187l-6 -6h-47 q-8 0 -12.5 4.5t-4.5 9.5l-4 54q-3 44 -26 61t-76 17h-260v-515q0 -39 18 -53t55 -14h279q203 0 276 268l64 -10l-76 -342q-164 4 -262 4h-436l-262 -4l-4 4v41q0 14 16 14l61 4q59 5 82 25t23 63v1027q0 46 -22.5 64.5t-82.5 23.5l-61 4q-16 0 -16 14v41l4 2q207 -2 262 -2 h516q49 0 96 8q8 0 8 -6z" />
<glyph unicode="F" horiz-adv-x="976" d="M207 1174q0 46 -22.5 64.5t-82.5 23.5l-61 4q-16 0 -16 14v41l4 2q207 -2 262 -2h516q49 0 96 8q8 0 8 -6q3 -14 20.5 -126.5t24.5 -170.5l-59 -10q-16 49 -27.5 78t-30.5 60.5t-41.5 47.5t-56.5 26.5t-79 10.5h-216q-38 0 -55.5 -14.5t-17.5 -50.5v-435h260 q52 0 74.5 20.5t27.5 65.5l6 52q0 6 4.5 11t10.5 5h45q8 0 8 -8q-8 -113 -8 -180l8 -183l-6 -6h-47q-8 0 -12.5 4.5t-4.5 9.5l-4 54q-3 44 -26 61t-76 17h-260v-515q0 -48 26 -70t86 -22h54q16 0 16 -16v-39l-2 -4q-158 4 -258 4l-264 -4l-4 4v39q0 16 16 16h53 q60 0 85.5 23.5t25.5 68.5v1027z" />
<glyph unicode="G" horiz-adv-x="1419" d="M768 1348q85 0 157.5 -14.5t113.5 -32t88.5 -32t86.5 -14.5q20 -198 46 -315l-62 -12q-17 57 -39.5 103.5t-59.5 93t-85 77.5t-118.5 50.5t-156.5 19.5q-137 0 -250 -75t-179 -213.5t-66 -313.5q0 -104 37.5 -211t105.5 -198.5t177.5 -149.5t240.5 -58q86 0 168 25.5 t133 73.5v313q0 46 -24.5 63.5t-88.5 22.5l-53 4q-16 0 -16 16v54l4 4q178 -4 258 -4l190 4l4 -4v-54q0 -13 -16 -16q-49 -5 -70.5 -22.5t-21.5 -67.5v-238q0 -31 33 -57q-110 -94 -241.5 -142t-305.5 -48q-151 0 -281.5 51.5t-219.5 139.5t-140 207t-51 251q0 163 60 301 t159 228t224.5 140t258.5 50z" />
<glyph unicode="H" horiz-adv-x="1433" d="M1051 147v510h-668v-510q0 -46 25 -64.5t88 -23.5l53 -4q16 0 16 -16v-39l-4 -4q-176 4 -258 4l-262 -4l-4 4v39q0 16 14 16l55 4q62 5 86.5 25t24.5 63v1029q0 44 -25 62.5t-86 23.5l-55 4q-16 0 -16 16v39l4 2q178 -2 258 -2l264 2l4 -2v-39q0 -16 -16 -16l-53 -4 q-62 -5 -87.5 -24.5t-25.5 -61.5v-433h668v433q0 45 -24.5 63t-86.5 23l-53 4q-19 0 -19 16v39l4 2q179 -2 258 -2l265 2l4 -2v-39q0 -16 -17 -16l-53 -4q-62 -5 -87 -24t-25 -62v-1029q0 -48 26 -70t86 -22h53q19 0 19 -16v-39l-4 -4q-178 4 -258 4l-265 -4l-4 4v39 q0 16 17 16h53q60 0 85.5 23.5t25.5 68.5z" />
<glyph unicode="I" horiz-adv-x="600" d="M383 1176v-1031q0 -45 25 -63t88 -23l53 -4q16 0 16 -16v-39l-4 -4q-98 4 -260 4q-160 0 -260 -4l-4 4v39q0 16 14 16l55 4q64 5 87.5 24t23.5 62v1031q0 45 -24.5 63t-86.5 23l-55 4q-16 0 -16 16v39l4 2q102 -2 260 -2q162 0 262 2l4 -2v-39q0 -16 -16 -16l-53 -4 q-62 -5 -87.5 -24.5t-25.5 -61.5z" />
<glyph unicode="J" horiz-adv-x="645" d="M121 -272q23 0 44 8.5t45.5 36t41.5 72t29 124t12 185.5v991q0 71 -30.5 92t-115.5 27l-41 2q-18 0 -18 16v37l4 4q201 -2 281 -2l243 2l5 -4v-37q0 -16 -17 -16l-35 -2q-61 -3 -85.5 -23.5t-24.5 -64.5v-977q0 -125 -31 -221.5t-74.5 -153t-109.5 -109.5 q-96 -80 -234 -80q-42 0 -86.5 30.5t-44.5 80.5q0 31 26.5 52.5t51.5 21.5q29 0 51.5 -9.5t32 -19t22.5 -27.5q27 -36 58 -36z" />
<glyph unicode="K" horiz-adv-x="1304" d="M383 633v-488q0 -45 25 -63t88 -23l53 -4q16 0 16 -16v-39l-4 -4q-98 4 -260 4q-160 0 -260 -4l-4 4v39q0 16 14 16l55 4q64 5 87.5 24t23.5 62v1031q0 45 -24.5 63t-86.5 23l-55 4q-16 0 -16 16v39l4 2q102 -2 260 -2q162 0 262 2l4 -2v-39q0 -16 -16 -16l-53 -4 q-62 -5 -87.5 -24.5t-25.5 -61.5v-465q94 5 164 80l344 360q30 33 41 55t0 37t-49 19l-43 4q-17 0 -17 16v39l4 2q156 -2 238 -2l197 2l10 -2v-39q0 -16 -23 -16q-53 -7 -84 -14.5t-79.5 -34.5t-92.5 -74l-286 -309q-49 -51 -62.5 -70t-13.5 -31q0 -24 24 -51l449 -532 q36 -45 73.5 -65.5t86.5 -27.5l14 -2q18 -5 18 -16v-39l-6 -4q-153 4 -233 4l-123 -4l-4 4v12q0 86 -41 138l-334 405q-61 78 -172 78z" />
<glyph unicode="L" horiz-adv-x="1077" d="M715 80q56 0 99.5 20.5t73 59.5t49 83t36.5 105l61 -10q-44 -215 -53 -342q-188 4 -244 4h-436l-262 -4l-4 4v39q0 16 16 16l62 4q64 5 84 21t20 67v1029q0 44 -25 62.5t-86 23.5l-55 4q-16 0 -16 16v39l4 2q178 -2 258 -2l264 2l4 -2v-39q0 -16 -16 -16l-53 -4 q-63 -5 -88 -24t-25 -62v-994q0 -47 26 -74.5t70 -27.5h236z" />
<glyph unicode="M" horiz-adv-x="1718" d="M1362 178l-57 916h-5l-460 -1084q-12 -22 -29 -22q-22 0 -31 22l-424 1063h-4l-86 -897q-5 -49 11.5 -81.5t58.5 -35.5l53 -4q21 0 21 -16v-37l-4 -6q-107 4 -189 4l-184 -4l-2 4v39q0 16 18 16l55 4q74 5 82 117l99 1000q5 45 -11.5 63.5t-66.5 22.5l-60 4q-20 0 -20 14 v37l6 6h301l420 -1042q9 -27 16 -27q8 0 19 29l434 1040h274l5 -6v-37q0 -14 -23 -14l-55 -4q-44 -4 -62.5 -25t-15.5 -61l72 -998q3 -57 20 -86.5t64 -32.5l55 -4q22 -3 22 -16v-39l-4 -4q-149 4 -229 4l-219 -4l-6 4v39q0 7 5.5 11.5t12.5 4.5l55 4q40 3 56 38t12 81z" />
<glyph unicode="N" horiz-adv-x="1423" d="M1235 1141v-1098q0 -59 -43 -59q-51 3 -82 45l-715 903q-52 67 -69 67q-12 0 -16.5 -22.5t-4.5 -77.5v-719q0 -50 27.5 -83t85.5 -38l53 -4q16 0 16 -16v-39l-4 -4q-145 4 -227 4l-229 -4l-4 4v37q0 15 26 18l53 4q58 5 84.5 39.5t26.5 81.5v946q-10 45 -51.5 90.5 t-87.5 49.5q-35 4 -35 16v37l6 4h279l702 -907q74 -96 89 -107q8 -6 13 -6q10 0 12.5 13.5t2.5 48.5v776q0 48 -26 82t-85 39l-53 4q-9 0 -19 4.5t-10 11.5v39l8 2q154 -2 228 -2l227 2l4 -2v-39q0 -16 -16 -16l-55 -4q-57 -5 -84 -38t-27 -83z" />
<glyph unicode="O" horiz-adv-x="1429" d="M684 1278q-61 0 -119.5 -21.5t-114 -69.5t-97 -117t-66.5 -172.5t-25 -227.5q0 -143 42 -262.5t112 -196.5t157.5 -119.5t180.5 -42.5q179 0 296 158.5t117 427.5q0 312 -130 477.5t-353 165.5zM1356 674q0 -310 -176 -502t-467 -192q-177 0 -321 78.5t-230 229 t-86 347.5q0 198 81.5 361.5t227.5 257.5t326 94q137 0 256 -49t205 -136t135 -213.5t49 -275.5z" />
<glyph unicode="P" horiz-adv-x="1067" d="M383 1176v-519q38 -10 145 -10q153 0 231.5 74.5t78.5 236.5q0 76 -16.5 132.5t-43.5 90t-65.5 54.5t-77 28t-84.5 7q-103 0 -135.5 -22t-32.5 -72zM217 145v1031q0 44 -28 64t-62 22l-80 4q-12 0 -12 12v43l4 2q166 -2 260 -2q31 0 136 9t130 9q91 0 165 -17t121.5 -46 t82 -63.5t52 -75t25 -74.5t7.5 -68q0 -56 -13.5 -110.5t-48.5 -111t-87.5 -99t-137.5 -69.5t-192 -27q-92 0 -156 20v-453q0 -45 24.5 -63t86.5 -23l55 -4q16 0 16 -16v-39l-4 -4q-178 4 -258 4l-264 -4l-4 4v39q0 16 16 16l53 4q62 5 87.5 24.5t25.5 61.5z" />
<glyph unicode="Q" horiz-adv-x="1429" d="M684 1278q-61 0 -119.5 -21.5t-114 -69.5t-97 -117t-66.5 -172.5t-25 -227.5q0 -143 42 -262.5t112 -196.5t157.5 -119.5t180.5 -42.5q179 0 296 158.5t117 427.5q0 312 -130 477.5t-353 165.5zM285 -313q53 77 147 159t201 138q-119 14 -220.5 65t-176.5 133.5 t-117.5 199t-42.5 253.5q0 198 81.5 361.5t227.5 257.5t326 94q137 0 256 -49t205 -136t135 -213.5t49 -275.5q0 -273 -138 -457t-374 -225q-138 -39 -275 -139q30 4 41 4q76 0 159 -26.5t144 -57.5t135 -57.5t134 -26.5q49 0 98 18.5t80 56.5l35 -24q-61 -88 -130.5 -128 t-164.5 -40q-74 0 -143.5 20t-124.5 49l-104 57q-51 29 -106.5 49t-107.5 20q-32 0 -77 -29.5t-72 -91.5z" />
<glyph unicode="R" horiz-adv-x="1185" d="M557 1270q-102 0 -138 -23t-36 -71v-510h102q64 0 113.5 8t96 29t77 55t48.5 90t18 131q0 86 -25.5 146.5t-69 90.5t-88.5 42t-98 12zM555 1339q118 0 202.5 -20t151.5 -82q109 -103 109 -256q0 -61 -20 -116t-50 -92.5t-68.5 -68t-71.5 -47.5t-63 -26l259 -430 q48 -79 90.5 -118.5t105.5 -39.5l2 -49q-28 -14 -86 -14q-158 0 -270 182l-219 356q-25 40 -75 59t-169 19v-449q0 -45 24.5 -64t86.5 -24l55 -4q16 0 16 -16v-39l-4 -4q-178 4 -258 4l-264 -4l-4 4v39q0 16 16 16l53 4q64 5 88.5 25t24.5 63v1029q0 44 -28 64t-62 22l-80 4 q-12 0 -12 12v43l4 2q166 -2 260 -2q32 0 132 9t124 9z" />
<glyph unicode="S" horiz-adv-x="972" d="M782 1292q11 -134 43 -311l-61 -10q-10 36 -18 60t-22.5 59t-29.5 59t-38 50.5t-49.5 42t-63 26t-78.5 10.5q-99 0 -162 -66.5t-63 -162.5q0 -175 288 -279q62 -22 105 -40.5t96 -52.5t85 -72.5t54.5 -97t22.5 -130.5q0 -104 -51.5 -196t-146 -149t-208.5 -57 q-88 0 -147 8.5t-89 17.5t-46 9q-21 0 -49.5 -5t-44.5 -5q-4 89 -39 358l61 7q69 -316 320 -316q120 0 197 67.5t77 188.5q0 54 -12.5 97.5t-31 71.5t-50.5 52.5t-60.5 38.5t-72.5 31l-82 32q-35 15 -86.5 41.5t-88 56.5t-71.5 69t-53.5 90t-18.5 108q0 103 59.5 186.5 t147 126t178.5 42.5q84 0 132 -10t87 -25t80 -21z" />
<glyph unicode="T" horiz-adv-x="1161" d="M158 1321h866q45 0 45 47l53 8q0 -140 27 -315l-62 -10q-14 66 -23.5 97t-27.5 55.5t-42.5 31t-67.5 6.5h-135q-57 0 -78 -17.5t-21 -68.5v-1008q0 -46 25.5 -64.5t87.5 -23.5l53 -4q19 0 19 -16v-39l-5 -4q-180 4 -260 4l-262 -4l-4 4v39q0 16 16 16l54 4 q63 5 86.5 24.5t23.5 63.5v1014q0 47 -21 63.5t-79 16.5h-170q-85 0 -117 -34t-63 -156l-62 10q30 131 45 315l56 -8q0 -47 43 -47z" />
<glyph unicode="U" horiz-adv-x="1353" d="M657 -20q-61 0 -120.5 11.5t-125.5 46t-115 88t-81.5 146t-32.5 211.5v688q0 47 -24.5 66.5t-85.5 24.5l-56 4q-16 0 -16 16v39l4 2q178 -2 258 -2l264 2l4 -2v-39q0 -16 -16 -16l-53 -4q-62 -5 -87.5 -26t-25.5 -65v-620q0 -54 1 -82.5t6.5 -78t16 -82.5t32.5 -72 t53 -70q105 -103 243 -103q63 0 115.5 12t90 35t66 51.5t47 68t30.5 77t18 85.5t8 87t2 88v600q0 48 -24 69t-86 26l-56 4q-16 0 -16 16v39l4 2q145 -2 225 -2l226 2l4 -2v-39q0 -16 -17 -16l-53 -4q-62 -5 -87.5 -27.5t-25.5 -67.5v-563q0 -116 -13 -205.5t-47.5 -170.5 t-91 -134t-148 -83.5t-214.5 -30.5z" />
<glyph unicode="V" horiz-adv-x="1273" d="M991 1157q21 55 -3.5 79.5t-86.5 27.5l-33 2q-16 0 -16 16v39l4 2q145 -2 225 -2l189 2l4 -2v-39q0 -16 -17 -16q-77 -4 -114 -37.5t-62 -98.5l-415 -1107q-20 -48 -50 -48t-47 48l-397 1116q-25 70 -52.5 95.5t-103.5 31.5q-16 0 -16 16v39l4 2q160 -2 240 -2l233 2 l4 -2v-39q0 -13 -16 -16l-35 -4q-72 -10 -89.5 -27.5t-0.5 -63.5l324 -911h8z" />
<glyph unicode="W" horiz-adv-x="1892" d="M1608 1157q18 57 -5.5 80.5t-84.5 26.5l-33 2q-6 0 -11.5 4.5t-5.5 11.5v39l5 2q145 -2 225 -2l188 2l4 -2v-39q0 -16 -16 -16q-78 -4 -115.5 -38t-58.5 -95l-383 -1110q-15 -48 -55 -48q-47 0 -64 50l-240 727q-20 57 -28 57q-12 0 -29 -51l-244 -733q-14 -50 -57 -50 q-48 0 -63 50l-373 1114q-28 82 -49.5 102.5t-89.5 24.5q-25 3 -25 14v39l4 4q107 -2 184 -2l248 2l4 -4v-37q0 -16 -18 -16l-45 -2q-58 -3 -58 -39q0 -17 13 -54l307 -944h4l217 678q14 44 14 78q0 32 -10 57l-30 95q-7 21 -12 33.5t-17.5 32.5t-27 31.5t-39.5 21.5t-56 12 q-25 0 -25 14v39l5 4q114 -2 196 -2l262 2l6 -4v-39q0 -14 -18 -14l-59 -4q-85 -8 -45 -127l294 -912h5z" />
<glyph unicode="X" horiz-adv-x="1341" d="M27 1280v39l8 4q186 -2 209 -2l245 2q7 -4 9 -4v-39q0 -14 -11 -14l-65 -4q-25 -2 -36 -8t-8.5 -19.5t9.5 -26t25 -37.5l243 -360q18 -23 25 -23t27 25l264 358q20 29 27 47t-2 30t-38 14l-61 4q-14 0 -14 14v41l4 2q180 -2 203 -2l198 2l6 -2v-41q0 -14 -18 -14 q-45 -1 -79 -11t-61 -32t-43 -40t-42 -53l-269 -362q-26 -36 -26 -61t32 -68l316 -430q101 -146 217 -154q14 0 14 -14v-41l-4 -4q-110 4 -215 4l-256 -4l-6 4v41q0 14 12 14l41 4q60 7 63.5 23t-36.5 68l-270 385q-18 22 -29 22t-31 -29l-270 -370q-20 -28 -26 -46.5 t6.5 -33.5t50.5 -19l38 -4q13 -2 13 -14v-41l-6 -4q-199 4 -230 4l-172 -4l-2 4v41q0 14 23 14q42 2 79 17.5t67 42t48.5 47.5t40.5 51l281 383q20 27 20 47q0 26 -28 62l-295 419q-89 126 -183 142q-32 6 -32 14z" />
<glyph unicode="Y" horiz-adv-x="1175" d="M520 147v383q0 61 -18 88l-297 502q-53 87 -80 113t-80 31l-25 2q-20 0 -20 14v41l2 2q191 -2 217 -2l236 2l2 -2v-39q0 -16 -13 -16l-59 -2q-21 -1 -33 -5t-16.5 -9.5t-1.5 -18t8 -21.5l16 -30l281 -494h4l262 494q24 47 16 63.5t-44 18.5l-62 4q-10 0 -10 14v41l2 2 q162 -2 188 -2l179 2l4 -2v-41q0 -10 -21 -14l-43 -4q-34 -3 -58 -18t-35.5 -31.5t-33.5 -55.5l-289 -522q-14 -32 -14 -86v-402q0 -48 26.5 -70t86.5 -22h55q16 0 16 -16v-39l-4 -4q-178 4 -258 4l-264 -4l-4 4v39q0 16 16 16h54q60 0 86 23.5t26 68.5z" />
<glyph unicode="Z" horiz-adv-x="1236" d="M1128 -4q-204 4 -260 4h-745q-39 0 -39 31q0 24 16 47l797 1108q16 22 16 37q0 16 -20 16h-473q-45 0 -79.5 -13t-56.5 -31t-41.5 -54t-30 -65.5t-26.5 -80.5l-61 11q33 172 45 342q30 -3 71.5 -15t94.5 -12h657q34 3 76 11.5t53 8.5q28 0 37.5 -4.5t9.5 -15.5 q0 -42 -49 -111l-768 -1063q-16 -29 -16 -41q0 -26 51 -26h477q56 0 99 20t72.5 59.5t48.5 83.5t36 105l64 -10q-39 -169 -56 -342z" />
<glyph unicode="[" horiz-adv-x="729" d="M225 -225v1665h430v-62q-55 -4 -93.5 -8t-71.5 -11.5t-53.5 -14.5t-37 -21.5t-24.5 -28t-13 -37.5t-6.5 -47.5t-1.5 -60.5v-1083q0 -50 2.5 -78t13.5 -56t28.5 -41t53.5 -26t82.5 -19t120.5 -12v-59h-430z" />
<glyph unicode="\" horiz-adv-x="587" d="M113 1430l471 -1528h-90l-471 1528h90z" />
<glyph unicode="]" horiz-adv-x="729" d="M504 1440v-1665h-430v61q74 6 120 11.5t82 18t54 26t29 40.5t13.5 55.5t2.5 78.5v1083q0 50 -2.5 78t-13.5 55.5t-28.5 41t-53.5 26t-82.5 18.5t-120.5 12v60h430z" />
<glyph unicode="^" horiz-adv-x="1060" d="M530 1214l-208 -505h-93l260 622h86l259 -622h-93z" />
<glyph unicode="_" horiz-adv-x="995" d="M987 -225v-90h-977v90h977z" />
<glyph unicode="`" horiz-adv-x="802" d="M365 1432l143 -258q12 -25 12 -50q0 -8 -9.5 -15t-21.5 -7q-15 0 -59 41l-233 223l4 23q63 47 133 47q13 0 31 -4z" />
<glyph unicode="a" horiz-adv-x="1101" d="M330 336l-90 -215q-9 -23 -9 -27q0 -18 20.5 -26t63.5 -11l27 -2q4 0 8 -3.5t4 -8.5v-43l-4 -4q-170 4 -209 4l-133 -4l-4 4v43q0 5 4 8.5t8 3.5q32 4 51 9.5t41.5 25t38.5 53.5l361 775q10 23 30 38t35 15q61 0 82 -51l299 -764q25 -59 50 -77.5t77 -23.5q17 -2 17 -12 v-43l-6 -4q-109 4 -170 4l-230 -4l-4 4v43q0 12 14 12l37 4q43 6 62.5 13.5t19.5 25.5q0 7 -4 23l-92 237h-350q-39 0 -45 -22zM700 418l-161 403h-2l-156 -375q0 -8 1.5 -12.5t11 -10t28.5 -5.5h278z" />
<glyph unicode="b" horiz-adv-x="997" d="M365 842v-305h139q100 0 148 45t48 137q0 176 -200 176q-70 0 -95 -3.5t-32.5 -13t-7.5 -36.5zM365 477v-356q0 -23 2.5 -33.5t14 -22.5t39 -16t75.5 -4q74 0 125.5 21.5t76 58t34 71.5t9.5 74q0 106 -52 156.5t-185 50.5h-139zM66 43q0 12 12 12l47 4q50 6 66 17.5 t16 48.5v696q0 36 -16 47.5t-66 16.5l-47 4q-12 0 -12 8v49l208 -4q170 4 228 4q85 0 150 -14.5t102 -36.5t60 -53t30.5 -59.5t7.5 -61.5q0 -60 -43 -120.5t-104 -88.5q208 -48 208 -256q0 -102 -101.5 -181t-264.5 -79l-273 4l-208 -4v47z" />
<glyph unicode="c" horiz-adv-x="1007" d="M565 -25q-114 0 -208.5 42t-154.5 111.5t-93 155t-33 175.5q0 222 137.5 367t341.5 145q93 0 199.5 -18.5t134.5 -18.5q2 -111 24 -262l-53 -6q-19 113 -92 179t-201 66q-49 0 -92.5 -11.5t-87 -42t-74.5 -77.5t-50 -124.5t-19 -176.5q0 -64 10.5 -123.5t35 -117 t61.5 -99.5t95 -68t129 -26q101 0 166 33.5t138 118.5l41 -33q-75 -99 -156.5 -144t-198.5 -45z" />
<glyph unicode="d" horiz-adv-x="1148" d="M66 43q0 12 12 12l47 4q46 5 64 24.5t18 66.5v669q0 39 -15 50t-67 16l-45 4q-14 0 -14 10v43l2 4l200 -4q218 4 287 4q113 0 209 -37.5t161.5 -102.5t102.5 -154.5t37 -190.5q0 -104 -28.5 -186t-75 -133.5t-110.5 -85t-129.5 -47t-137.5 -13.5q-95 0 -197.5 2t-118.5 2 l-200 -4l-2 4v43zM365 145q0 -19 2.5 -31.5t12.5 -25t28 -19.5t49.5 -11.5t77.5 -4.5q180 0 272 84t92 289q0 463 -403 463q-68 0 -99.5 -11t-31.5 -47v-686z" />
<glyph unicode="e" horiz-adv-x="929" d="M801 942q2 -103 28 -246l-51 -6q-9 35 -20.5 61t-32.5 56.5t-56 47.5t-81 17h-164q-31 0 -45 -9t-14 -34v-303h153q40 0 56.5 16t23.5 50l12 43q0 10 13 10h34q5 0 5 -6q-13 -117 -13 -152q0 -19 13 -141l-5 -4h-34q-15 0 -15 10l-10 45q-6 33 -24 48.5t-56 15.5h-153 v-342q0 -28 14.5 -38.5t44.5 -10.5h176q86 0 130 47.5t73 138.5l51 -6q-37 -147 -43 -250h-541l-202 -4l-2 4v45q0 10 12 10l47 4q47 5 64.5 19t17.5 45v698q0 34 -18.5 47.5t-63.5 16.5l-47 4q-12 2 -12 8v45l2 4l204 -4h148h381z" />
<glyph unicode="f" horiz-adv-x="892" d="M360 825v-329h177q38 0 54.5 15.5t24.5 49.5l11 43q4 12 12 12h35q6 0 6 -6q-12 -104 -12 -153q0 -23 3 -58.5t6 -59.5l3 -24l-4 -4h-37q-10 0 -14 11l-9 45q-8 34 -24.5 48.5t-54.5 14.5h-177v-305q0 -32 20.5 -46t65.5 -20l37 -4q15 0 15 -12v-43l-2 -4q-164 4 -228 4 l-205 -4l-4 4v43q0 5 4.5 8.5t10.5 3.5l41 4q46 5 67 20.5t21 45.5v694q0 34 -16 48t-66 18l-49 4q-13 0 -13 10v45l7 2l206 -4h486q4 -163 16 -242l-51 -6q-38 178 -156 178h-149q-30 0 -44 -10.5t-14 -36.5z" />
<glyph unicode="g" horiz-adv-x="1116" d="M813 328q0 32 -20.5 45t-67.5 18l-41 4q-12 0 -12 13v45l2 2q164 -2 225 -2l154 2l4 -2v-45q0 -10 -13 -13q-41 -7 -57 -19t-16 -48v-154q0 -19 28 -47q-212 -147 -415 -147q-218 0 -362 136t-144 335q0 238 150.5 379t381.5 141q64 0 184 -18.5t144 -18.5 q3 -129 27 -262l-54 -6q-47 249 -327 249q-157 0 -247.5 -123t-90.5 -315q0 -52 14 -110.5t44.5 -117.5t73.5 -106.5t106.5 -77.5t136.5 -30q110 0 192 82v211z" />
<glyph unicode="h" horiz-adv-x="1208" d="M844 125v326h-477v-326q0 -33 18.5 -47t67.5 -19l43 -4q4 0 8 -3.5t4 -8.5v-43l-2 -4q-158 4 -219 4l-217 -4l-4 4v43q0 12 14 12l41 4q51 5 69.5 19.5t18.5 46.5v696q0 33 -19 46t-69 18l-41 4q-14 0 -14 12v41l4 4q153 -4 217 -4l219 4l2 -4v-41q0 -12 -12 -12l-43 -4 q-47 -5 -66.5 -19t-19.5 -45v-307h477v307q0 32 -20 45.5t-68 18.5l-41 4q-15 0 -15 12v41l5 4q151 -4 215 -4l221 4l2 -4v-41q0 -12 -13 -12l-40 -4q-50 -4 -69.5 -18.5t-19.5 -45.5v-696q0 -33 19.5 -47t69.5 -19l40 -4q15 0 15 -12v-43l-4 -4q-162 4 -223 4l-213 -4l-3 4 v43q0 12 13 12l41 4q46 5 67 20.5t21 45.5z" />
<glyph unicode="i" horiz-adv-x="571" d="M367 819v-682q0 -35 19 -54t67 -24l43 -4q12 0 12 -12v-43l-2 -4q-156 4 -219 4l-217 -4l-4 4v43q0 12 14 12l41 4q88 9 88 78v682q0 33 -20 47t-68 19l-41 4q-14 0 -14 8v45l2 4q161 -4 225 -4l213 4l2 -4v-43q0 -10 -12 -10l-43 -4q-47 -4 -66.5 -19.5t-19.5 -46.5z " />
<glyph unicode="j" horiz-adv-x="616" d="M426 197q0 -323 -201 -482q-88 -73 -217 -73q-40 0 -81.5 28t-41.5 74q0 30 25 50t49 20q61 0 98 -52q25 -34 54 -34q22 0 41 8.5t40.5 36t37 72t26 124t10.5 185.5v667q0 33 -19.5 47t-68.5 17l-57 4q-12 0 -12 10v43l2 4q176 -4 237 -4l201 4l4 -4v-43q0 -7 -14 -10 l-27 -4q-49 -9 -67.5 -21.5t-18.5 -42.5v-624z" />
<glyph unicode="k" horiz-adv-x="1071" d="M367 440v-303q0 -33 20.5 -51.5t65.5 -26.5l22 -4q12 -4 12 -12v-43l-2 -4q-129 4 -190 4l-225 -4l-4 4v43q0 12 14 12l41 4q44 5 66 26t22 52v682q0 33 -19.5 47t-68.5 19l-41 4q-14 0 -14 8v45l2 4q168 -4 231 -4l186 4l2 -4v-43q0 -7 -12 -10l-22 -4q-50 -10 -68 -23 t-18 -43v-309q48 0 85.5 26.5t110.5 104.5q146 160 146 205q0 13 -15.5 26t-44.5 17q-12 3 -12 10v45l2 2q166 -4 225 -4l144 4l6 -2v-45q0 -10 -17 -10q-49 -4 -75 -9t-62.5 -26t-71.5 -61l-176 -203q-47 -51 -47 -76q0 -13 19 -35l309 -373q26 -30 115 -49l10 -2 q14 -5 14 -12v-43l-6 -2q-108 2 -166 2l-125 -2l-2 2v25q0 47 -31 81l-227 283q-22 29 -47 40t-61 11z" />
<glyph unicode="l" horiz-adv-x="860" d="M567 70q45 0 78.5 13.5t56 41.5t36.5 57.5t28 73.5l51 -6q-37 -155 -43 -250h-502q-6 0 -22.5 -0.5t-63.5 -1.5t-118 -2l-2 4v43q0 12 12 12l47 4q50 5 67 18t17 50v692q0 33 -20 47t-68 19l-41 4q-14 0 -14 12v41l2 4q161 -4 225 -4l213 4l2 -4v-41q0 -12 -12 -12 l-43 -4q-48 -4 -67 -19.5t-19 -46.5v-698q0 -28 14 -39.5t43 -11.5h143z" />
<glyph unicode="m" horiz-adv-x="1337" d="M979 782l-326 -790q-7 -17 -22 -17q-18 0 -25 17l-291 776h-4l-71 -627q0 -47 19 -64.5t79 -21.5q14 0 14 -12v-43l-2 -4q-96 4 -157 4l-146 -4l-2 4v43q0 12 16 12q62 5 82.5 21.5t26.5 75.5l78 688q0 28 -21 36t-86 13q-16 0 -16 8v43l4 6l268 -4l277 -743l301 743 l262 4l4 -4v-37q0 -16 -16 -16q-77 -6 -94.5 -22.5t-12.5 -78.5l49 -647q5 -49 25.5 -64.5t77.5 -21.5q18 0 18 -12v-43l-4 -4q-117 4 -178 4l-201 -4l-4 4v43q0 12 14 12l43 4q33 3 44.5 17.5t9.5 48.5l-29 657h-4z" />
<glyph unicode="n" horiz-adv-x="1169" d="M983 795v-764q0 -56 -41 -56q-22 0 -38.5 10t-41.5 35l-481 642q-41 49 -55 49q-21 0 -21 -72v-494q0 -35 23.5 -58t68.5 -28l41 -4q15 0 15 -12v-43l-2 -4q-125 4 -189 4l-190 -4l-6 4v43q0 12 20 12l41 4q88 9 88 86v668q-18 33 -45 52.5t-80 23.5q-18 0 -18 12v39l4 6 l276 -4l469 -637q43 -49 58 -49q14 0 14 53v486q0 33 -23.5 59.5t-66.5 30.5l-43 4q-21 0 -21 10v43l4 4q140 -4 195 -4l182 4l6 -2v-45q0 -10 -14 -10l-41 -4q-88 -8 -88 -90z" />
<glyph unicode="o" horiz-adv-x="1136" d="M553 899q-59 0 -113 -27.5t-98 -78t-70 -132.5t-26 -182q0 -189 95.5 -311.5t244.5 -122.5q138 0 222.5 110.5t84.5 297.5q0 199 -99.5 322.5t-240.5 123.5zM1063 481q0 -101 -33 -191.5t-94.5 -161t-160 -112t-220.5 -41.5q-207 0 -343 135.5t-136 344.5 q0 225 140.5 370.5t354.5 145.5q133 0 245 -61t179.5 -174t67.5 -255z" />
<glyph unicode="p" horiz-adv-x="890" d="M362 872v-413q46 -19 134 -19q186 0 186 232q0 123 -51 170t-146 47q-64 0 -123 -17zM207 127v688q0 45 -23.5 57t-101.5 17q-14 0 -14 10v45l4 2q11 0 94 -2t117 -2q26 0 100.5 2t114.5 2q83 0 146.5 -16t100 -40.5t59.5 -59.5t30.5 -66.5t7.5 -67.5q0 -41 -8 -80 t-32 -83t-61 -76t-101.5 -53t-147.5 -21q-84 0 -130 20v-276q0 -32 19 -44.5t72 -21.5l41 -6q14 -3 14 -12v-43l-2 -4q-164 4 -227 4l-211 -4l-2 4v43q0 9 12 12l43 6q47 7 66.5 22t19.5 44z" />
<glyph unicode="q" horiz-adv-x="1136" d="M553 899q-59 0 -113 -27.5t-98 -78t-70 -132.5t-26 -182q0 -189 95.5 -311.5t244.5 -122.5q138 0 222.5 110.5t84.5 297.5q0 199 -99.5 322.5t-240.5 123.5zM252 -242q39 56 109 115t151 104q-192 16 -314 148.5t-122 329.5q0 225 140.5 370.5t354.5 145.5q133 0 245 -61 t179.5 -174t67.5 -255q0 -181 -100.5 -318.5t-284.5 -174.5q-102 -37 -189 -94q9 2 23 2q61 0 126 -21t111 -46t103.5 -46t105.5 -21q93 0 142 60l28 -21q-48 -70 -104 -102.5t-133 -32.5q-58 0 -112.5 16.5t-96.5 39.5l-80 46q-39 23 -81.5 39.5t-84.5 16.5 q-26 0 -62.5 -23t-58.5 -73z" />
<glyph unicode="r" horiz-adv-x="985" d="M662 709q0 95 -40 135.5t-137 40.5q-75 0 -100 -15t-25 -47v-331h70q122 0 177 47.5t55 169.5zM207 127v686q0 21 -8.5 35t-28.5 21t-37.5 10t-48.5 6q-6 0 -11 4.5t-5 7.5v45l4 4q127 -4 209 -4q41 0 107 2t89 2q154 0 246 -60t92 -177q0 -102 -65.5 -166t-159.5 -74v-2 q47 -4 88 -45t61 -92l70 -154q33 -75 62.5 -108t80.5 -33l13 -43q-44 -17 -111 -17q-28 0 -55.5 14t-48.5 34t-41 47.5t-31 48.5l-23 43l-61 123q-12 28 -26.5 50t-39 46t-63.5 37.5t-88 13.5h-17v-297q0 -58 93 -76l24 -4q15 -4 15 -12v-43l-7 -4q-143 4 -204 4l-213 -4 l-2 4v43q0 12 12 12l43 4q47 5 66.5 21t19.5 47z" />
<glyph unicode="s" horiz-adv-x="802" d="M659 918q16 -104 23 -222l-55 -4q-23 98 -84.5 157.5t-136.5 59.5q-78 0 -121 -42.5t-43 -110.5q0 -28 16 -57t39 -51t52.5 -42.5t51 -32.5t39.5 -20q40 -17 69.5 -31t73.5 -42t72 -56.5t49 -71t21 -88.5q0 -128 -81 -208.5t-216 -80.5q-94 0 -173.5 17.5t-84.5 17.5 q-14 0 -35.5 -5t-32.5 -7q0 96 -22 289l57 4q26 -130 94 -193t160 -63q174 0 174 184q0 43 -14.5 75.5t-47.5 59.5t-67 46t-92 46q-244 113 -244 273q0 80 47 139t114 86t142 27q72 0 125 -13.5t83 -26.5t48 -13z" />
<glyph unicode="t" horiz-adv-x="1001" d="M741 872h-75q-43 0 -59.5 -14.5t-16.5 -50.5v-682q0 -33 19.5 -47t68.5 -19l41 -4q5 0 9.5 -4t4.5 -8v-43l-4 -4q-160 4 -221 4l-215 -4l-2 4v43q0 12 12 12l41 4q47 5 67.5 20.5t20.5 45.5v684q0 34 -17 48.5t-61 14.5h-92q-67 0 -96.5 -37t-61.5 -151l-55 6 q17 96 17 281h51q3 -11 17.5 -20t37.5 -9h657q23 0 38 9t18 20h51q0 -169 16 -281l-55 -6q-32 113 -61.5 150.5t-94.5 37.5z" />
<glyph unicode="u" horiz-adv-x="1144" d="M563 -20q-45 0 -92.5 11.5t-98 41t-90 72.5t-64.5 112t-25 154v448q0 33 -19 46.5t-70 19.5l-36 4q-13 0 -13 10v43l2 4q156 -4 219 -4l213 4l3 -4v-43q0 -10 -13 -10l-41 -4q-48 -4 -68 -19.5t-20 -46.5v-405q0 -64 4.5 -113t20 -101t41.5 -85t72.5 -54.5t109.5 -21.5 q199 0 250 165q22 71 22 228v387q0 33 -20 47t-68 19l-41 4q-14 0 -14 10v43l4 4q123 -4 184 -4l172 4l3 -4v-43q0 -10 -13 -10l-35 -4q-46 -6 -62.5 -20t-16.5 -46v-360q0 -91 -10 -160t-36 -131t-70.5 -102t-115.5 -63t-168 -23z" />
<glyph unicode="v" horiz-adv-x="1073" d="M825 817q12 30 -7 42.5t-75 25.5l-18 4q-14 5 -14 10v43l4 4q131 -4 192 -4l146 4l2 -4v-43q0 -10 -19 -10q-89 -8 -121 -88l-309 -744q-17 -45 -33 -63.5t-43 -18.5q-46 0 -75 82l-293 748q-11 27 -20 41t-35 27t-68 16q-5 0 -12 3t-7 7v45l3 2q131 -4 192 -4l203 4 l4 -2v-45q0 -7 -12 -10l-25 -4q-18 -4 -26.5 -5.5t-20.5 -5.5t-16.5 -7.5t-8.5 -9.5t-3 -14.5t5 -19.5l248 -630q3 -13 10 -13q9 0 13 13z" />
<glyph unicode="w" horiz-adv-x="1572" d="M494 -25q-38 0 -70 80l-277 754q-22 59 -88 76l-18 4q-21 3 -21 10v43l5 4q84 -4 143 -4l217 4l2 -4v-41q0 -12 -14 -12l-35 -4q-34 -4 -41 -21t6 -41l240 -649l172 473q12 38 12 53q0 29 -4 43l-31 80q-20 55 -108 66q-19 3 -19 10v43l4 4q88 -4 154 -4l219 4l4 -4v-43 q0 -10 -14 -10l-47 -4q-64 -6 -33 -88l235 -637l242 657q5 14 6 28t-12.5 25.5t-40.5 14.5l-43 4q-12 0 -12 10v43l2 4q121 -4 186 -4l135 4l4 -2v-43q0 -12 -18 -12q-42 -3 -70 -21t-37.5 -34.5t-17.5 -40.5l-268 -736q-29 -82 -86 -82q-22 0 -39.5 8t-28.5 23t-16 25.5 t-10 25.5l-170 480q-18 43 -25 43t-20 -37l-173 -486q-9 -26 -16 -40.5t-24 -28t-41 -13.5z" />
<glyph unicode="x" horiz-adv-x="1097" d="M432 885q-23 -3 -33 -6t-16 -12.5t2.5 -29t30.5 -51.5l131 -196q14 -21 22 -21t21 15l143 200q16 22 23.5 36t11 29.5t-7.5 24t-35 11.5l-35 4q-16 0 -16 14v37l8 6q104 -4 172 -4l176 4l4 -4v-37q0 -13 -22 -15q-3 -1 -4 -1q-61 -4 -96.5 -29t-100.5 -104l-184 -236 q-6 -12 -6 -16q0 -6 6 -17l198 -280q70 -97 106 -122t95 -30q18 -2 24.5 -5t6.5 -13v-37l-4 -4q-119 4 -195 4l-227 -4l-4 4v39q0 13 16 16l27 4q26 4 37 13t6 26.5t-16 35t-35 50.5l-130 176q-10 17 -20 17q-5 0 -20 -23l-140 -196q-15 -21 -23 -35.5t-10.5 -28.5t8 -23 t33.5 -12l31 -4q15 -3 15 -16v-39l-3 -4q-114 4 -186 4l-164 -4l-6 4v35q0 17 31 20q24 3 40 7.5t40.5 17.5t52.5 40.5t61 69.5l185 238q6 9 6 16q0 8 -8 19l-191 278q-53 78 -88.5 111t-89.5 37q-31 4 -31 14v37l4 6l174 -4l244 4l6 -6v-35q0 -16 -16 -16z" />
<glyph unicode="y" horiz-adv-x="980" d="M418 125v276l-258 424q-20 31 -46.5 45t-72.5 19q-16 0 -16 10v43l4 4q8 0 82 -2t86 -2q158 0 206 4l3 -2v-45q0 -3 -3.5 -6.5t-7.5 -3.5l-45 -4q-34 -3 -36.5 -18t16.5 -40l207 -338h4l190 338q21 37 17.5 46t-39.5 12l-47 4q-9 0 -9 10v45l4 2q12 0 80 -2t78 -2 q79 0 139 4l2 -4v-43q0 -8 -14 -10l-35 -4q-46 -6 -64 -20t-42 -58l-226 -397v-285q0 -33 19 -47t68 -19l43 -4q14 0 14 -12v-43l-4 -4q-156 4 -219 4l-217 -4l-5 4v43q0 5 4.5 8.5t10.5 3.5l41 4q47 5 67.5 20t20.5 46z" />
<glyph unicode="z" horiz-adv-x="933" d="M219 944l479 -2q70 14 107 14q45 0 45 -20t-39 -74l-508 -741q-12 -18 -12 -31q0 -20 41 -20h243q83 0 122.5 36.5t78.5 126.5l27 60l55 -14q-52 -177 -65 -279h-693q-30 0 -30 20q0 14 14 35l539 774q14 23 14 29q0 14 -19 14h-309q-50 0 -96 -45t-76 -147l-53 6 q28 158 31 279q0 6 8 6q10 -2 34 -14.5t62 -12.5z" />
<glyph unicode="{" horiz-adv-x="559" d="M367 1145v-344q0 -125 -30.5 -180t-109.5 -86q85 -34 112.5 -97t27.5 -192v-314q0 -119 34 -176q8 -13 16.5 -24t16.5 -18l16 -14q6 -5 15 -9l13 -5q3 -2 12 -5t10 -3v-26q-177 3 -228 69q-55 70 -55 240v334q0 47 -6 83.5t-21 68.5t-42.5 52.5t-67.5 28.5v11 q137 36 137 229v362q0 156 57 220q57 66 226 69v-26q-60 -16 -101 -78q-32 -56 -32 -170z" />
<glyph unicode="|" horiz-adv-x="419" d="M256 -379h-90v1686h90v-1686z" />
<glyph unicode="}" horiz-adv-x="559" d="M193 -74v344q0 127 30.5 182t108.5 85q-85 34 -112 96.5t-27 191.5v314q0 117 -35 176q-8 13 -16.5 24t-17.5 19l-14 12q-7 6 -16 10l-12 6q-4 1 -13 4t-10 3v26q179 -3 230 -69q53 -68 53 -240v-334q0 -47 6 -83.5t21 -68.5t42.5 -52.5t67.5 -28.5v-11 q-137 -36 -137 -231v-360q0 -156 -55 -220q-57 -66 -228 -69v26q63 17 103 78q31 54 31 170z" />
<glyph unicode="~" horiz-adv-x="919" d="M53 428q21 104 96 183t166 79q31 0 73.5 -21t77.5 -45.5t77 -45.5t73 -21q53 0 112.5 34t90.5 103l35 -12q-22 -77 -57 -130t-72.5 -76t-65 -31.5t-51.5 -8.5q-35 0 -77.5 21t-75.5 45.5t-75 45.5t-77 21q-57 0 -123 -41t-100 -106z" />
<glyph unicode="&#xa1;" horiz-adv-x="464" d="M236 -467q-46 0 -80.5 39t-34.5 111q0 75 23 203t30 192q12 97 19 183.5t10 134t4 55.5q4 41 29 41q24 0 28 -27q1 -13 5.5 -78.5t11.5 -152t14 -156.5q7 -72 29 -194t22 -201q0 -75 -34.5 -112.5t-75.5 -37.5zM344 793q0 -45 -32 -77t-76 -32q-45 0 -77 32t-32 77 q0 44 32 76t77 32q44 0 76 -32t32 -76z" />
<glyph unicode="&#xa2;" horiz-adv-x="897" d="M455 1196h69v-145q128 -6 202.5 -67t74.5 -142q0 -44 -22.5 -67t-57.5 -23t-60.5 17.5t-29.5 53.5q-4 31 -8 49.5t-15 43.5t-32 40t-52 21v-766h17q127 0 229 149l37 -28q-61 -107 -129 -156t-154 -55v-146h-69v148q-165 13 -263 136.5t-98 311.5q0 198 103 328.5 t258 149.5v147zM455 227v752q-89 -18 -145 -115.5t-56 -247.5q0 -143 55.5 -247t145.5 -142z" />
<glyph unicode="&#xa3;" horiz-adv-x="897" d="M301 174q81 0 128.5 -15t88.5 -42q59 -39 119 -39q49 0 105.5 24.5t91.5 71.5l38 -27q-28 -78 -97.5 -125t-172.5 -47q-36 0 -73 10.5t-61 22.5t-60 33q-95 53 -152 53q-46 0 -66 -16.5t-20 -36.5q0 -37 -25 -56.5t-57 -19.5q-20 0 -36.5 15.5t-16.5 33.5q0 59 98 113 q23 18 33 31q106 113 106 387v53h-135v82h135v16q0 122 35.5 209t116.5 166q104 107 258 107q19 0 43.5 -5t51 -15t44 -28.5t17.5 -42.5q0 -36 -22 -56.5t-58 -20.5q-20 0 -34.5 8.5t-35.5 28.5q-49 45 -96 45q-69 0 -119.5 -86.5t-50.5 -210.5v-115h266v-82h-266v-10 q0 -310 -129 -408l-10 -8q6 2 18 2z" />
<glyph unicode="&#xa4;" horiz-adv-x="897" d="M207 592q0 -116 66.5 -195.5t172.5 -79.5q105 0 171.5 80t66.5 193q0 114 -68.5 193t-164.5 79q-106 0 -175 -79.5t-69 -190.5zM446 231q-121 0 -221 74l-88 -108l-84 82l111 88q-80 95 -80 223q0 133 80 225l-107 84l76 82l94 -104q99 71 219 71q128 0 224 -76l94 113 l80 -84l-113 -90q78 -93 78 -221q0 -121 -76 -219l107 -90l-74 -78l-94 104q-101 -76 -226 -76z" />
<glyph unicode="&#xa5;" horiz-adv-x="897" d="M815 340v-80h-280v-113q0 -48 25.5 -69t86.5 -21h53q17 0 17 -16v-39l-4 -4q-178 4 -258 4l-262 -4l-5 4v39q0 16 15 16h55q60 0 85.5 22.5t25.5 67.5v113h-283v80h283v129h-283v82h270l-227 475q-24 49 -47.5 71.5t-61.5 22.5h-14q-18 6 -20 17v37l2 4q38 -7 188 -7 q124 0 176 7l4 -4v-35q0 -19 -14 -19h-27q-49 0 -49 -26q0 -12 21 -64l207 -436l192 436q21 51 21 66q0 26 -50 26h-32q-13 0 -13 15v37l4 4q60 -7 160 -7q80 0 148 7l2 -4v-35q0 -6 -0.5 -9t-5 -5.5t-13.5 -2.5h-12q-81 0 -125 -96l-211 -475h256v-82h-280v-129h280z" />
<glyph unicode="&#xa6;" horiz-adv-x="419" d="M264 1380v-741h-98v741h98zM264 330v-742h-98v742h98z" />
<glyph unicode="&#xa7;" horiz-adv-x="954" d="M696 201q70 61 70 149q0 48 -19.5 95t-45.5 82.5t-74 75t-81.5 62.5t-94 55t-85.5 44l-80 37q-18 8 -26 12q-70 -58 -70 -149q0 -98 82.5 -197t190.5 -150q125 -57 233 -116zM500 1348q115 0 204 -74.5t89 -181.5q0 -31 -23.5 -54.5t-52.5 -23.5q-33 0 -54 17.5 t-25.5 33.5t-4.5 29q0 38 14 55q8 16 8 27q0 4 -4 15t-14.5 27.5t-26 30.5t-42.5 24.5t-60 10.5q-85 0 -143 -64t-58 -147q0 -67 37 -104t117 -74q49 -23 86 -42t87.5 -50t86 -65.5t68.5 -77.5t50 -97t17 -114q0 -178 -125 -279q70 -60 70 -197q0 -50 -28 -106t-73 -103.5 t-110 -78.5t-133 -31q-116 0 -203.5 74t-87.5 184q0 32 23 55t51 23q25 0 43.5 -10t27 -24.5t12 -26.5t3.5 -21q0 -25 -13.5 -49t-13.5 -33q0 -5 4.5 -16.5t16 -28t28 -31t44.5 -25t61 -10.5q75 0 135.5 58t60.5 155q0 55 -30 102.5t-80 71.5q-246 119 -342.5 220.5 t-96.5 242.5q0 178 121 275q-51 62 -51 192q0 69 40.5 141t119 123.5t170.5 51.5z" />
<glyph unicode="&#xa8;" horiz-adv-x="768" d="M440 1178q0 38 28 65t67 27q38 0 65 -27t27 -65q0 -39 -27 -67t-65 -28q-39 0 -67 28t-28 67zM113 1178q0 38 27 65t65 27t66 -27t28 -65q0 -39 -28 -67t-66 -28t-65 28t-27 67z" />
<glyph unicode="&#xa9;" horiz-adv-x="1296" d="M895 444q-35 -54 -96.5 -92.5t-139.5 -38.5q-142 0 -228.5 93.5t-86.5 222.5q0 119 86 212t223 93q81 0 133.5 -14.5t77.5 -14.5l25 -160l-55 -8q-8 43 -14.5 63.5t-24.5 45.5t-52 35t-88 10q-32 0 -63 -12t-62.5 -39.5t-51 -83t-19.5 -131.5q0 -110 53.5 -183t153.5 -73 q114 0 186 104zM649 47q-118 0 -225.5 46t-185 124t-123 185.5t-45.5 224.5t46 224t123.5 184.5t184.5 123t225 45.5t225 -45.5t184.5 -123t123 -184t45.5 -224.5t-45.5 -225.5t-123 -185t-184.5 -123.5t-225 -46zM649 1141q-141 0 -260 -69t-187.5 -187t-68.5 -258 q0 -139 68.5 -257.5t187.5 -187.5t260 -69q139 0 257.5 68.5t187.5 187t69 258.5t-68.5 258t-187 187t-258.5 69z" />
<glyph unicode="&#xaa;" horiz-adv-x="608" d="M385 1028q-128 -33 -175.5 -65t-47.5 -80q0 -36 21.5 -60t70.5 -24q31 0 60.5 15.5t70.5 51.5v162zM473 733q-35 0 -58 24.5t-28 55.5q-54 -47 -89 -63.5t-85 -16.5q-67 0 -112.5 39.5t-45.5 104.5q0 122 211 176l119 30q0 55 -10 91t-28 52t-34.5 21.5t-38.5 5.5 q-50 0 -80 -15t-30 -40q0 -17 4 -27q4 -8 4 -24t-13.5 -29.5t-39.5 -13.5q-23 0 -38 14t-15 37q0 58 71.5 104t141.5 46q42 0 77 -10t68.5 -34t52.5 -72.5t19 -117.5v-153q0 -117 28 -117q15 0 25 10l20 -33q-16 -17 -42.5 -31t-53.5 -14z" />
<glyph unicode="&#xab;" horiz-adv-x="1097" d="M958 879v-105q-137 -206 -292 -334q147 -110 292 -334v-104q-243 284 -446 399v78q222 160 446 400zM590 879v-105q-141 -206 -295 -334q150 -115 295 -334v-104q-249 287 -451 399v78q214 151 451 400z" />
<glyph unicode="&#xac;" horiz-adv-x="1146" d="M989 272v459h-940v90h1051v-549h-111z" />
<glyph unicode="&#xad;" horiz-adv-x="716" d="M561 444h-463q-13 0 -21.5 10.5t-8.5 24.5q0 25 16.5 50.5t34.5 25.5h469q28 0 28 -37q0 -19 -18 -46.5t-37 -27.5z" />
<glyph unicode="&#xae;" horiz-adv-x="1296" d="M854 762q0 -30 -12 -57t-29 -44.5t-34.5 -30.5t-29.5 -18l-12 -6l99 -168q36 -63 82 -63v-27q-28 -8 -48 -8q-90 0 -127 78l-98 162q-11 8 -55 8v-195q0 -9 2 -12.5t12 -3.5h25q22 0 22 -12v-23q-86 4 -114 4l-113 -4v25q0 10 20 10h25q9 0 12.5 3t3.5 13v457q0 22 -8 22 l-33 -2q-20 3 -20 13v22q72 10 235 10q55 0 95.5 -15t61 -39t29.5 -48.5t9 -50.5zM752 762q0 54 -27 86.5t-78 32.5q-34 0 -57 -7v-243q25 0 42 1.5t42 8.5t40 20t26.5 39t11.5 62zM649 47q-118 0 -225.5 46t-185 124t-123 185.5t-45.5 224.5t46 224t123.5 184.5t184.5 123 t225 45.5t225 -45.5t184.5 -123t123 -184t45.5 -224.5t-45.5 -225.5t-123 -185t-184.5 -123.5t-225 -46zM649 1141q-141 0 -260 -69t-187.5 -187t-68.5 -258q0 -139 68.5 -257.5t187.5 -187.5t260 -69q139 0 257.5 68.5t187.5 187t69 258.5t-68.5 258t-187 187t-258.5 69z " />
<glyph unicode="&#xaf;" horiz-adv-x="813" d="M645 1085h-500q-24 0 -24 29q0 20 13.5 40t31.5 20h500q28 0 28 -29q0 -20 -15 -40t-34 -20z" />
<glyph unicode="&#xb0;" horiz-adv-x="546" d="M410 1073q0 58 -35.5 104t-100.5 46q-63 0 -100 -45t-37 -105q0 -57 37.5 -100t99.5 -43q60 0 98 44t38 99zM70 1075q0 85 60 145t144 60q85 0 144 -60t59 -145q0 -84 -59 -143.5t-144 -59.5q-84 0 -144 59.5t-60 143.5z" />
<glyph unicode="&#xb1;" horiz-adv-x="1079" d="M592 700h352v-100h-352v-356h-105v356h-352v100h352v357h105v-357zM944 137v-100h-809v100h809z" />
<glyph unicode="&#xb2;" horiz-adv-x="628" d="M150 1202q-19 0 -36.5 15t-17.5 34q0 22 12 47.5t36.5 51t69 42.5t101.5 17t104 -14t82.5 -54t35.5 -102q0 -66 -44.5 -121.5t-138.5 -122.5q-135 -96 -135 -184h166q23 0 41.5 12t34 36.5t23.5 41.5t20 47l49 -10q-30 -101 -39 -193h-422q0 68 50 131t137 130 q52 41 78 69t42.5 68t16.5 94q0 64 -35.5 93.5t-73.5 29.5q-60 0 -85 -17.5t-25 -42.5q0 -9 5 -25t5 -24q0 -22 -19.5 -35.5t-37.5 -13.5z" />
<glyph unicode="&#xb3;" horiz-adv-x="628" d="M385 1278q0 43 -24 62.5t-58 19.5q-38 0 -74.5 -18.5t-38.5 -53.5q-1 -17 -4 -27t-15 -21t-34 -11q-18 0 -29.5 8.5t-14.5 16t-3 12.5q0 15 13 37t38.5 47t75 42t111.5 17q80 0 127 -32t47 -89q0 -81 -105 -139q60 -5 112 -52t52 -128q0 -104 -86.5 -170t-212.5 -66 q-62 0 -122 23t-60 53q0 15 16 28t33 13q30 0 53 -29q15 -19 36 -28t67 -9q18 0 41 7t50.5 23.5t45.5 52.5t18 85q0 33 -12 58t-29.5 38.5t-41 22t-41 10.5t-35.5 2q-9 0 -41 -4l-4 49q69 10 109 49t40 101z" />
<glyph unicode="&#xb4;" horiz-adv-x="698" d="M358 1440q14 4 29 4q58 0 100 -37q12 -9 13 -10l6 -23l-236 -223q-40 -41 -59 -41q-11 0 -20 7.5t-9 17.5q0 26 13 47z" />
<glyph unicode="&#xb5;" horiz-adv-x="993" d="M207 -479q-32 0 -71.5 38.5t-39.5 94.5q0 49 16.5 155.5t16.5 174.5q0 27 -9 126t-9 164v385q0 26 -5.5 83t-10.5 101l-5 44l168 18q6 -137 6 -203v-401q0 -233 142 -233q78 0 149.5 40t108.5 95v684l153 18v-651q0 -125 11 -153q11 -29 42 -29q35 0 70 90l49 -23 q-33 -85 -72.5 -124.5t-113.5 -39.5q-58 0 -98.5 43.5t-40.5 104.5q-66 -72 -137 -110t-160 -38q-33 0 -66.5 15.5t-50.5 36.5q-9 0 -17 -6t-8 -13q0 -72 33 -199t33 -165q0 -60 -23.5 -91.5t-60.5 -31.5z" />
<glyph unicode="&#xb6;" horiz-adv-x="1232" d="M1020 -295q0 -58 7.5 -84t23 -34t51.5 -9h59q13 0 13 -14v-43h-674v43q0 14 12 14h59q51 1 65.5 25t14.5 104v758q-50 -25 -157 -25q-55 0 -111 12.5t-116.5 45t-106.5 82t-75.5 132.5t-29.5 187q0 193 109 308.5t307 115.5q89 0 204 -5t130 -5l141 6l228 4v-43 q0 -14 -13 -14h-59q-53 0 -67.5 -26t-14.5 -101v-1434zM834 -424q41 0 53 28t12 99v1436q0 42 -4 68t-14 37t-18 14t-23 4q-19 0 -32.5 -8t-20 -18.5t-10.5 -30t-4.5 -34t-0.5 -38.5v-1426q0 -131 62 -131z" />
<glyph unicode="&#xb7;" horiz-adv-x="512" d="M256 418q-49 0 -80 32.5t-31 77.5q0 44 33.5 78.5t77.5 34.5q42 0 76.5 -33.5t34.5 -79.5q0 -45 -32 -77.5t-79 -32.5z" />
<glyph unicode="&#xb8;" horiz-adv-x="1107" d="M600 -164q-52 0 -92 -12l-12 12l79 178h70l-49 -118q24 6 53 6q63 0 104.5 -35t41.5 -92q0 -65 -62.5 -105.5t-157.5 -40.5q-70 0 -151 35l20 45q78 -28 119 -28q50 0 86.5 22t36.5 61q0 32 -25 52t-61 20z" />
<glyph unicode="&#xb9;" horiz-adv-x="628" d="M260 1272q-19 0 -56.5 -11t-60.5 -22l-18 55q125 47 237 115h33v-535q0 -33 15.5 -54t35.5 -21h58q12 0 12 -11v-43q-106 3 -176 3l-201 -3v43q0 4 5 7.5t12 3.5h71q26 0 45 21t19 54v312q0 51 -5.5 68.5t-25.5 17.5z" />
<glyph unicode="&#xba;" horiz-adv-x="714" d="M80 879q0 131 75 205.5t207 74.5q73 0 127.5 -22t86 -61t46.5 -85t15 -100q0 -113 -74 -191.5t-211 -78.5q-114 0 -193 74t-79 184zM350 1108q-73 0 -112 -60t-39 -149q0 -85 45.5 -153t130.5 -68q23 0 46 8t46.5 26.5t38 56t14.5 89.5q0 121 -45.5 185.5t-124.5 64.5z " />
<glyph unicode="&#xbb;" horiz-adv-x="1097" d="M98 2v104q134 203 293 334q-146 111 -293 334v105q244 -284 447 -400v-78q-216 -153 -447 -399zM467 2v104q140 207 295 334q-150 116 -295 334v105q250 -288 451 -400v-78q-213 -149 -451 -399z" />
<glyph unicode="&#xbc;" horiz-adv-x="1351" d="M1090 1231l86 -17l-940 -1341l-84 16zM254 1171q-19 0 -56.5 -10.5t-60.5 -21.5l-18 55q130 48 237 115h33v-535q0 -33 15.5 -54.5t35.5 -21.5h58q12 0 12 -10v-43q-107 2 -176 2l-201 -2v43q0 3 5.5 6.5t11.5 3.5h71q26 0 45 21.5t19 54.5v311q0 51 -5.5 68.5 t-25.5 17.5zM1178 362v-243h104v-60h-104v-129q0 -30 8.5 -40.5t36.5 -10.5h32q11 0 11 -8v-37l-144 2l-139 -2v37q0 8 10 8h37q29 0 38 9t9 42v129h-299l-8 15q71 83 107 200q32 128 32 222h72q0 -86 -25 -224q-8 -40 -26 -85t-33 -68h180v192z" />
<glyph unicode="&#xbd;" horiz-adv-x="1351" d="M1090 1231l86 -17l-940 -1341l-84 16zM258 1171q-19 0 -56.5 -10.5t-60.5 -21.5l-18 55q130 48 237 115h33v-535q0 -33 15.5 -54.5t35.5 -21.5h58q12 0 12 -10v-43q-106 2 -176 2l-201 -2v43q0 3 5.5 6.5t11.5 3.5h71q26 0 45 21.5t19 54.5v311q0 51 -5.5 68.5 t-25.5 17.5zM883 295q-20 0 -37 14.5t-17 34.5q0 52 56 105t164 53q57 0 103.5 -14t82 -54t35.5 -102q0 -66 -44.5 -121.5t-138.5 -122.5q-135 -96 -135 -184h166q23 0 41.5 12t34 36.5t23.5 41.5t20 47l49 -10q-30 -104 -39 -193h-422q0 68 50 131t137 129q77 62 107 108 t30 124q0 64 -35.5 93.5t-73.5 29.5q-60 0 -85 -17.5t-25 -42.5q0 -9 5 -25t5 -24q0 -22 -19.5 -35.5t-37.5 -13.5z" />
<glyph unicode="&#xbe;" horiz-adv-x="1351" d="M1090 1231l86 -17l-940 -1341l-84 16zM1186 367v-244h104v-60h-104v-129q0 -30 8.5 -40.5t36.5 -10.5h33q10 0 10 -8v-37l-144 2l-139 -2v37q0 8 10 8h37q29 0 38 9t9 42v129h-299l-8 15q71 81 107 201q33 130 33 221h71q0 -80 -24 -224q-9 -41 -27 -85.5t-33 -67.5h180 v192zM381 1174q0 43 -24 62t-58 19q-38 0 -75 -18.5t-38 -52.5q-1 -17 -4 -27.5t-15 -21.5t-34 -11q-18 0 -29.5 8.5t-14.5 16t-3 12.5q0 15 13 37.5t38.5 47.5t74.5 42t112 17q80 0 127 -32t47 -89q0 -82 -105 -140q61 -5 112.5 -52t51.5 -128q0 -104 -86.5 -169.5 t-212.5 -65.5q-62 0 -122 23t-60 53q0 15 16 27.5t33 12.5q29 0 53 -28q14 -19 35.5 -28t67.5 -9q14 0 31 3.5t39.5 15t41 29t31 49t12.5 71.5q0 33 -12 58t-29.5 38.5t-41 22t-41.5 10.5t-36 2q-8 0 -40 -4l-5 49q69 9 109.5 48.5t40.5 101.5z" />
<glyph unicode="&#xbf;" horiz-adv-x="829" d="M633 -291q0 38 -12 53q-13 16 -13 50q0 33 24 52t56 19t58 -20t26 -68q0 -100 -104 -184q-94 -80 -254 -80q-156 0 -247 84.5t-91 224.5q0 47 14.5 90t33 72.5t52.5 63t56 50.5l61 46q87 65 106 102q37 70 37 150v90q0 20 27 20q26 0 26 -20v-94q0 -42 -3.5 -73 t-15.5 -76.5t-42 -91t-76 -89.5q-66 -61 -94.5 -112t-28.5 -120q0 -102 59.5 -179t145.5 -77t142.5 35t56.5 82zM571 793q0 -45 -32 -77t-76 -32q-45 0 -77 32t-32 77q0 44 32 76t77 32q44 0 76 -32t32 -76z" />
<glyph unicode="&#xc0;" horiz-adv-x="1423" d="M539 580h356l-201 546h-2l-205 -520q-6 -14 9 -20t43 -6zM311 162q-16 -40 5.5 -69t76.5 -34l60 -4q16 0 16 -16v-39l-4 -4q-223 4 -272 4l-185 -4l-4 4v39q0 16 16 16q75 5 117 33.5t82 120.5l455 1065q14 32 33.5 53t37.5 21q16 0 28 -14.5t26 -47.5l420 -1110 q21 -59 55 -85.5t96 -33.5l23 -2q20 0 20 -16v-39l-6 -4q-158 4 -238 4l-272 -4l-2 4v39q0 16 14 16l58 4q59 5 80 25.5t6 62.5l-125 347h-426q-36 0 -50 -7.5t-22 -27.5zM582 1675l247 -172q31 -22 31 -43q0 -30 -31 -30q-28 0 -88 24l-315 129z" />
<glyph unicode="&#xc1;" horiz-adv-x="1423" d="M539 580h356l-201 546h-2l-205 -520q-6 -14 9 -20t43 -6zM311 162q-16 -40 5.5 -69t76.5 -34l60 -4q16 0 16 -16v-39l-4 -4q-223 4 -272 4l-185 -4l-4 4v39q0 16 16 16q75 5 117 33.5t82 120.5l455 1065q14 32 33.5 53t37.5 21q16 0 28 -14.5t26 -47.5l420 -1110 q21 -59 55 -85.5t96 -33.5l23 -2q20 0 20 -16v-39l-6 -4q-158 4 -238 4l-272 -4l-2 4v39q0 16 14 16l58 4q59 5 80 25.5t6 62.5l-125 347h-426q-36 0 -50 -7.5t-22 -27.5zM854 1679l127 -106l-295 -119q-57 -24 -88 -24q-29 0 -29 30q0 22 31 43z" />
<glyph unicode="&#xc2;" horiz-adv-x="1423" d="M539 580h356l-201 546h-2l-205 -520q-6 -14 9 -20t43 -6zM311 162q-16 -40 5.5 -69t76.5 -34l60 -4q16 0 16 -16v-39l-4 -4q-223 4 -272 4l-185 -4l-4 4v39q0 16 16 16q75 5 117 33.5t82 120.5l455 1065q14 32 33.5 53t37.5 21q16 0 28 -14.5t26 -47.5l420 -1110 q21 -59 55 -85.5t96 -33.5l23 -2q20 0 20 -16v-39l-6 -4q-158 4 -238 4l-272 -4l-2 4v39q0 16 14 16l58 4q59 5 80 25.5t6 62.5l-125 347h-426q-36 0 -50 -7.5t-22 -27.5zM776 1649q87 -104 207 -193l-33 -43q-124 58 -217 127q-104 -76 -219 -127l-29 43q90 68 203 193h88z " />
<glyph unicode="&#xc3;" horiz-adv-x="1423" d="M539 580h356l-201 546h-2l-205 -520q-6 -14 9 -20t43 -6zM311 162q-16 -40 5.5 -69t76.5 -34l60 -4q16 0 16 -16v-39l-4 -4q-223 4 -272 4l-185 -4l-4 4v39q0 16 16 16q75 5 117 33.5t82 120.5l455 1065q14 32 33.5 53t37.5 21q16 0 28 -14.5t26 -47.5l420 -1110 q21 -59 55 -85.5t96 -33.5l23 -2q20 0 20 -16v-39l-6 -4q-158 4 -238 4l-272 -4l-2 4v39q0 16 14 16l58 4q59 5 80 25.5t6 62.5l-125 347h-426q-36 0 -50 -7.5t-22 -27.5zM864 1524q36 0 59 22t44 84l49 -12q-37 -184 -178 -184q-52 0 -131 53q-76 45 -111 45q-39 0 -62 -23 t-38 -75l-50 10q22 93 60.5 137.5t103.5 44.5t148 -57q59 -45 106 -45z" />
<glyph unicode="&#xc4;" horiz-adv-x="1423" d="M539 580h356l-201 546h-2l-205 -520q-6 -14 9 -20t43 -6zM311 162q-16 -40 5.5 -69t76.5 -34l60 -4q16 0 16 -16v-39l-4 -4q-223 4 -272 4l-185 -4l-4 4v39q0 16 16 16q75 5 117 33.5t82 120.5l455 1065q14 32 33.5 53t37.5 21q16 0 28 -14.5t26 -47.5l420 -1110 q21 -59 55 -85.5t96 -33.5l23 -2q20 0 20 -16v-39l-6 -4q-158 4 -238 4l-272 -4l-2 4v39q0 16 14 16l58 4q59 5 80 25.5t6 62.5l-125 347h-426q-36 0 -50 -7.5t-22 -27.5zM860 1405q0 37 28 64.5t66 27.5q39 0 66 -27.5t27 -64.5q0 -39 -27 -66.5t-66 -27.5q-38 0 -66 28 t-28 66zM406 1403q0 38 28 65t66 27t65 -27t27 -65t-27 -65t-65 -27t-66 27t-28 65z" />
<glyph unicode="&#xc5;" horiz-adv-x="1423" d="M539 580h356l-201 546h-2l-205 -520q-6 -14 9 -20t43 -6zM311 162q-16 -40 5.5 -69t76.5 -34l60 -4q16 0 16 -16v-39l-4 -4q-223 4 -272 4l-185 -4l-4 4v39q0 16 16 16q75 5 117 33.5t82 120.5l455 1065l12 24q-61 13 -101 59.5t-40 108.5q0 71 51.5 120.5t122.5 49.5 q72 0 124 -49t52 -121q0 -51 -29.5 -93t-77.5 -62q3 -5 6.5 -13.5t4.5 -11.5l420 -1110q21 -59 55 -85.5t96 -33.5l23 -2q20 0 20 -16v-39l-6 -4q-158 4 -238 4l-272 -4l-2 4v39q0 16 14 16l58 4q59 5 80 25.5t6 62.5l-125 347h-426q-36 0 -50 -7.5t-22 -27.5zM721 1581 q-47 0 -79 -34t-32 -81q0 -44 32 -79t79 -35q46 0 78 35t32 79q0 48 -32.5 81.5t-77.5 33.5z" />
<glyph unicode="&#xc6;" horiz-adv-x="1781" d="M549 625h323v553q0 34 -2 47zM958 2l-264 -4l-4 4v37q0 18 17 18h55q60 0 85 22.5t25 67.5v398h-364l-217 -406q-27 -50 -27 -59q0 -14 15 -18.5t53 -4.5h59q12 0 12 -12v-43l-4 -4q-131 4 -211 4l-186 -4l-2 4v39q0 16 20 16h46q45 0 69.5 17t52.5 69l547 1039 q8 13 8 28q0 25 -20 40.5t-45 15.5h-66q-14 0 -14 14v41l2 2l356 -2l158 2h504l29 -287l-56 -6q-12 76 -64 143.5t-124 67.5h-291q-38 0 -56 -14.5t-18 -50.5v-426h207q51 0 71.5 21t31.5 69l14 61q4 17 14 17h45q9 0 9 -9q-17 -158 -17 -194q0 -72 17 -197l-7 -6h-47 q-12 0 -16 14l-12 64q-9 46 -31 68t-72 22h-207v-533q0 -39 18.5 -53t55.5 -14h311q95 0 147 67t79 191l53 -10l-51 -328h-537z" />
<glyph unicode="&#xc7;" horiz-adv-x="1318" d="M733 -172q-52 0 -92 -12l-12 12l67 152q-152 6 -273 65t-195 153.5t-113 209t-39 237.5q0 148 54.5 280t144.5 224t209 145.5t245 53.5q86 0 160 -13.5t115.5 -30t89 -32t84.5 -17.5q10 -142 45 -317l-62 -8q-103 342 -454 342q-51 0 -109.5 -20.5t-120 -67.5t-111 -113 t-81 -167t-31.5 -220q0 -91 18 -179.5t56.5 -168.5t93 -140.5t133 -96.5t170.5 -36q143 0 255 52.5t220 171.5l47 -31q-194 -255 -479 -274l-39 -95q28 7 53 7q63 0 104.5 -35t41.5 -92q0 -66 -62 -106t-157 -40q-74 0 -152 35l21 45q72 -26 101 -28q8 -1 17 -1 q50 0 86.5 22.5t36.5 61.5q0 32 -25 52t-61 20z" />
<glyph unicode="&#xc8;" horiz-adv-x="1124" d="M911 1323q3 -14 20.5 -126.5t24.5 -170.5l-59 -10q-16 49 -27.5 78t-30.5 60.5t-41.5 47.5t-56.5 26.5t-79 10.5h-216q-38 0 -55.5 -14.5t-17.5 -50.5v-435h260q52 0 74.5 20.5t27.5 65.5l6 52q0 6 4.5 11t10.5 5h45q8 0 8 -8q-8 -109 -8 -176l8 -187l-6 -6h-47 q-8 0 -12.5 4.5t-4.5 9.5l-4 54q-3 44 -26 61t-76 17h-260v-515q0 -39 18 -53t55 -14h279q203 0 276 268l64 -10l-76 -342q-164 4 -262 4h-436l-262 -4l-4 4v41q0 14 16 14l61 4q59 5 82 25t23 63v1027q0 46 -22.5 64.5t-82.5 23.5l-61 4q-16 0 -16 14v41l4 2q207 -2 262 -2 h516q49 0 96 8q8 0 8 -6zM502 1673l248 -172q30 -22 30 -43q0 -31 -30 -31q-26 0 -88 25l-316 129z" />
<glyph unicode="&#xc9;" horiz-adv-x="1124" d="M911 1323q3 -14 20.5 -126.5t24.5 -170.5l-59 -10q-16 49 -27.5 78t-30.5 60.5t-41.5 47.5t-56.5 26.5t-79 10.5h-216q-38 0 -55.5 -14.5t-17.5 -50.5v-435h260q52 0 74.5 20.5t27.5 65.5l6 52q0 6 4.5 11t10.5 5h45q8 0 8 -8q-8 -109 -8 -176l8 -187l-6 -6h-47 q-8 0 -12.5 4.5t-4.5 9.5l-4 54q-3 44 -26 61t-76 17h-260v-515q0 -39 18 -53t55 -14h279q203 0 276 268l64 -10l-76 -342q-164 4 -262 4h-436l-262 -4l-4 4v41q0 14 16 14l61 4q59 5 82 25t23 63v1027q0 46 -22.5 64.5t-82.5 23.5l-61 4q-16 0 -16 14v41l4 2q207 -2 262 -2 h516q49 0 96 8q8 0 8 -6zM717 1679l127 -106l-295 -119q-57 -24 -88 -24q-29 0 -29 30q0 22 31 43z" />
<glyph unicode="&#xca;" horiz-adv-x="1124" d="M911 1323q3 -14 20.5 -126.5t24.5 -170.5l-59 -10q-16 49 -27.5 78t-30.5 60.5t-41.5 47.5t-56.5 26.5t-79 10.5h-216q-38 0 -55.5 -14.5t-17.5 -50.5v-435h260q52 0 74.5 20.5t27.5 65.5l6 52q0 6 4.5 11t10.5 5h45q8 0 8 -8q-8 -109 -8 -176l8 -187l-6 -6h-47 q-8 0 -12.5 4.5t-4.5 9.5l-4 54q-3 44 -26 61t-76 17h-260v-515q0 -39 18 -53t55 -14h279q203 0 276 268l64 -10l-76 -342q-164 4 -262 4h-436l-262 -4l-4 4v41q0 14 16 14l61 4q59 5 82 25t23 63v1027q0 46 -22.5 64.5t-82.5 23.5l-61 4q-16 0 -16 14v41l4 2q207 -2 262 -2 h516q49 0 96 8q8 0 8 -6zM649 1649q87 -104 207 -193l-33 -43q-124 58 -217 127q-104 -76 -219 -127l-29 43q90 68 203 193h88z" />
<glyph unicode="&#xcb;" horiz-adv-x="1124" d="M911 1323q3 -14 20.5 -126.5t24.5 -170.5l-59 -10q-16 49 -27.5 78t-30.5 60.5t-41.5 47.5t-56.5 26.5t-79 10.5h-216q-38 0 -55.5 -14.5t-17.5 -50.5v-435h260q52 0 74.5 20.5t27.5 65.5l6 52q0 6 4.5 11t10.5 5h45q8 0 8 -8q-8 -109 -8 -176l8 -187l-6 -6h-47 q-8 0 -12.5 4.5t-4.5 9.5l-4 54q-3 44 -26 61t-76 17h-260v-515q0 -39 18 -53t55 -14h279q203 0 276 268l64 -10l-76 -342q-164 4 -262 4h-436l-262 -4l-4 4v41q0 14 16 14l61 4q59 5 82 25t23 63v1027q0 46 -22.5 64.5t-82.5 23.5l-61 4q-16 0 -16 14v41l4 2q207 -2 262 -2 h516q49 0 96 8q8 0 8 -6zM721 1538q0 37 27.5 64.5t64.5 27.5q38 0 66 -27.5t28 -64.5q0 -38 -28 -66t-66 -28q-37 0 -64.5 28t-27.5 66zM334 1536q0 38 27 65t65 27t65 -27t27 -65t-27 -65t-65 -27t-65 27t-27 65z" />
<glyph unicode="&#xcc;" horiz-adv-x="600" d="M383 1176v-1031q0 -45 25 -63t88 -23l53 -4q16 0 16 -16v-39l-4 -4q-98 4 -260 4q-160 0 -260 -4l-4 4v39q0 16 14 16l55 4q64 5 87.5 24t23.5 62v1031q0 45 -24.5 63t-86.5 23l-55 4q-16 0 -16 16v39l4 2q102 -2 260 -2q162 0 262 2l4 -2v-39q0 -16 -16 -16l-53 -4 q-62 -5 -87.5 -24.5t-25.5 -61.5zM203 1673l248 -172q30 -22 30 -43q0 -31 -30 -31q-25 0 -89 25l-315 129z" />
<glyph unicode="&#xcd;" horiz-adv-x="600" d="M383 1176v-1031q0 -45 25 -63t88 -23l53 -4q16 0 16 -16v-39l-4 -4q-98 4 -260 4q-160 0 -260 -4l-4 4v39q0 16 14 16l55 4q64 5 87.5 24t23.5 62v1031q0 45 -24.5 63t-86.5 23l-55 4q-16 0 -16 16v39l4 2q102 -2 260 -2q162 0 262 2l4 -2v-39q0 -16 -16 -16l-53 -4 q-62 -5 -87.5 -24.5t-25.5 -61.5zM430 1677l127 -106l-295 -119q-60 -25 -88 -25q-29 0 -29 31q0 22 31 43z" />
<glyph unicode="&#xce;" horiz-adv-x="600" d="M383 1176v-1031q0 -45 25 -63t88 -23l53 -4q16 0 16 -16v-39l-4 -4q-98 4 -260 4q-160 0 -260 -4l-4 4v39q0 16 14 16l55 4q64 5 87.5 24t23.5 62v1031q0 45 -24.5 63t-86.5 23l-55 4q-16 0 -16 16v39l4 2q102 -2 260 -2q162 0 262 2l4 -2v-39q0 -16 -16 -16l-53 -4 q-62 -5 -87.5 -24.5t-25.5 -61.5zM342 1649q83 -101 207 -193l-33 -43q-124 58 -217 127q-104 -76 -219 -127l-29 43q84 63 203 193h88z" />
<glyph unicode="&#xcf;" horiz-adv-x="600" d="M383 1176v-1031q0 -45 25 -63t88 -23l53 -4q16 0 16 -16v-39l-4 -4q-98 4 -260 4q-160 0 -260 -4l-4 4v39q0 16 14 16l55 4q64 5 87.5 24t23.5 62v1031q0 45 -24.5 63t-86.5 23l-55 4q-16 0 -16 16v39l4 2q102 -2 260 -2q162 0 262 2l4 -2v-39q0 -16 -16 -16l-53 -4 q-62 -5 -87.5 -24.5t-25.5 -61.5zM401 1536q0 37 28 64.5t65 27.5q38 0 66 -27.5t28 -64.5q0 -38 -28 -66t-66 -28t-65.5 28t-27.5 66zM14 1534q0 38 27 65t65 27q39 0 66 -27t27 -65t-27 -65t-66 -27q-38 0 -65 27t-27 65z" />
<glyph unicode="&#xd0;" horiz-adv-x="1427" d="M35 37q0 18 14 18l62 4q55 3 80.5 24t25.5 69v436h-182v80h182v503q0 54 -20 70t-86 21l-58 4q-18 0 -18 16v37l4 4q50 0 129 -1t129 -1q65 0 168 1t168 1q193 0 355.5 -93t256.5 -252t94 -347q0 -105 -22 -193.5t-60 -153t-91 -115t-111.5 -82.5t-126 -53t-130.5 -29.5 t-128 -8.5q-114 0 -211.5 2t-161.5 2q-168 0 -258 -4l-4 4v37zM383 147q0 -35 14.5 -50.5t61 -23t147.5 -7.5q92 0 168 13.5t148 49t121 92.5t78.5 148.5t29.5 212.5q0 99 -19 191.5t-64 180.5t-112 153.5t-170 105.5t-231 40q-44 0 -70.5 -2t-52 -9.5t-37.5 -23.5t-12 -42 v-508h207v-80h-207v-441z" />
<glyph unicode="&#xd1;" horiz-adv-x="1423" d="M854 1520q36 0 59 22t43 84l50 -12q-37 -184 -179 -184q-52 0 -131 53q-76 45 -110 45q-39 0 -62 -23t-39 -75l-49 10q22 93 60.5 137.5t103.5 44.5t148 -57q58 -45 106 -45zM1235 1141v-1098q0 -59 -43 -59q-51 3 -82 45l-715 903q-52 67 -69 67q-12 0 -16.5 -22.5 t-4.5 -77.5v-719q0 -50 27.5 -83t85.5 -38l53 -4q16 0 16 -16v-39l-4 -4q-145 4 -227 4l-229 -4l-4 4v37q0 15 26 18l53 4q58 5 84.5 39.5t26.5 81.5v946q-10 45 -51.5 90.5t-87.5 49.5q-35 4 -35 16v37l6 4h279l702 -907q74 -96 89 -107q8 -6 13 -6q10 0 12.5 13.5 t2.5 48.5v776q0 48 -26 82t-85 39l-53 4q-9 0 -19 4.5t-10 11.5v39l8 2q154 -2 228 -2l227 2l4 -2v-39q0 -16 -16 -16l-55 -4q-57 -5 -84 -38t-27 -83z" />
<glyph unicode="&#xd2;" horiz-adv-x="1429" d="M684 1278q-61 0 -119.5 -21.5t-114 -69.5t-97 -117t-66.5 -172.5t-25 -227.5q0 -143 42 -262.5t112 -196.5t157.5 -119.5t180.5 -42.5q179 0 296 158.5t117 427.5q0 312 -130 477.5t-353 165.5zM1356 674q0 -310 -176 -502t-467 -192q-177 0 -321 78.5t-230 229 t-86 347.5q0 198 81.5 361.5t227.5 257.5t326 94q137 0 256 -49t205 -136t135 -213.5t49 -275.5zM623 1677l247 -172q31 -22 31 -43q0 -30 -31 -30q-28 0 -88 24l-315 129z" />
<glyph unicode="&#xd3;" horiz-adv-x="1429" d="M684 1278q-61 0 -119.5 -21.5t-114 -69.5t-97 -117t-66.5 -172.5t-25 -227.5q0 -143 42 -262.5t112 -196.5t157.5 -119.5t180.5 -42.5q179 0 296 158.5t117 427.5q0 312 -130 477.5t-353 165.5zM1356 674q0 -310 -176 -502t-467 -192q-177 0 -321 78.5t-230 229 t-86 347.5q0 198 81.5 361.5t227.5 257.5t326 94q137 0 256 -49t205 -136t135 -213.5t49 -275.5zM793 1679l127 -106l-295 -119q-57 -24 -88 -24q-29 0 -29 30q0 22 31 43z" />
<glyph unicode="&#xd4;" horiz-adv-x="1429" d="M684 1278q-61 0 -119.5 -21.5t-114 -69.5t-97 -117t-66.5 -172.5t-25 -227.5q0 -143 42 -262.5t112 -196.5t157.5 -119.5t180.5 -42.5q179 0 296 158.5t117 427.5q0 312 -130 477.5t-353 165.5zM1356 674q0 -310 -176 -502t-467 -192q-177 0 -321 78.5t-230 229 t-86 347.5q0 198 81.5 361.5t227.5 257.5t326 94q137 0 256 -49t205 -136t135 -213.5t49 -275.5zM754 1649q83 -101 207 -193l-33 -43q-128 59 -217 127q-102 -74 -219 -127l-29 43q84 63 203 193h88z" />
<glyph unicode="&#xd5;" horiz-adv-x="1429" d="M684 1278q-61 0 -119.5 -21.5t-114 -69.5t-97 -117t-66.5 -172.5t-25 -227.5q0 -143 42 -262.5t112 -196.5t157.5 -119.5t180.5 -42.5q179 0 296 158.5t117 427.5q0 312 -130 477.5t-353 165.5zM1356 674q0 -310 -176 -502t-467 -192q-177 0 -321 78.5t-230 229 t-86 347.5q0 198 81.5 361.5t227.5 257.5t326 94q137 0 256 -49t205 -136t135 -213.5t49 -275.5zM840 1520q36 0 58.5 22t43.5 84l49 -12q-36 -184 -178 -184q-52 0 -131 53q-76 45 -111 45q-39 0 -61.5 -23t-38.5 -75l-49 10q22 93 60.5 137.5t103.5 44.5q64 0 147 -57 q59 -45 107 -45z" />
<glyph unicode="&#xd6;" horiz-adv-x="1429" d="M684 1278q-61 0 -119.5 -21.5t-114 -69.5t-97 -117t-66.5 -172.5t-25 -227.5q0 -143 42 -262.5t112 -196.5t157.5 -119.5t180.5 -42.5q179 0 296 158.5t117 427.5q0 312 -130 477.5t-353 165.5zM1356 674q0 -310 -176 -502t-467 -192q-177 0 -321 78.5t-230 229 t-86 347.5q0 198 81.5 361.5t227.5 257.5t326 94q137 0 256 -49t205 -136t135 -213.5t49 -275.5zM223 1409q0 38 28 65t66 27q39 0 66 -27t27 -65t-27 -65t-66 -27q-38 0 -66 27t-28 65zM1012 1403q0 38 27 65t65 27t65 -27t27 -65t-27 -65t-65 -27t-65 27t-27 65z" />
<glyph unicode="&#xd7;" horiz-adv-x="1079" d="M610 471l252 -250l-71 -71l-250 249l-250 -249l-74 71l252 250l-252 252l74 72l250 -252l250 252l71 -72z" />
<glyph unicode="&#xd8;" horiz-adv-x="1429" d="M166 -82l-60 53l152 189q-182 180 -182 475q0 198 81.5 361.5t227.5 257.5t326 94q234 0 405 -136l129 160l60 -49l-131 -162q182 -190 182 -487q0 -310 -176 -502t-467 -192q-224 0 -394 126zM684 1278q-61 0 -119.5 -21.5t-114 -69.5t-97 -117t-66.5 -172.5t-25 -227.5 q0 -221 100 -385l674 829q-129 164 -352 164zM1079 1047l-669 -828q68 -82 158.5 -126t185.5 -44q179 0 296 158.5t117 427.5q0 253 -88 412z" />
<glyph unicode="&#xd9;" horiz-adv-x="1353" d="M657 -20q-61 0 -120.5 11.5t-125.5 46t-115 88t-81.5 146t-32.5 211.5v688q0 47 -24.5 66.5t-85.5 24.5l-56 4q-16 0 -16 16v39l4 2q178 -2 258 -2l264 2l4 -2v-39q0 -16 -16 -16l-53 -4q-62 -5 -87.5 -26t-25.5 -65v-620q0 -54 1 -82.5t6.5 -78t16 -82.5t32.5 -72 t53 -70q105 -103 243 -103q63 0 115.5 12t90 35t66 51.5t47 68t30.5 77t18 85.5t8 87t2 88v600q0 48 -24 69t-86 26l-56 4q-16 0 -16 16v39l4 2q145 -2 225 -2l226 2l4 -2v-39q0 -16 -17 -16l-53 -4q-62 -5 -87.5 -27.5t-25.5 -67.5v-563q0 -116 -13 -205.5t-47.5 -170.5 t-91 -134t-148 -83.5t-214.5 -30.5zM565 1675l248 -172q31 -22 31 -43q0 -30 -31 -30q-28 0 -88 24l-315 129z" />
<glyph unicode="&#xda;" horiz-adv-x="1353" d="M657 -20q-61 0 -120.5 11.5t-125.5 46t-115 88t-81.5 146t-32.5 211.5v688q0 47 -24.5 66.5t-85.5 24.5l-56 4q-16 0 -16 16v39l4 2q178 -2 258 -2l264 2l4 -2v-39q0 -16 -16 -16l-53 -4q-62 -5 -87.5 -26t-25.5 -65v-620q0 -54 1 -82.5t6.5 -78t16 -82.5t32.5 -72 t53 -70q105 -103 243 -103q63 0 115.5 12t90 35t66 51.5t47 68t30.5 77t18 85.5t8 87t2 88v600q0 48 -24 69t-86 26l-56 4q-16 0 -16 16v39l4 2q145 -2 225 -2l226 2l4 -2v-39q0 -16 -17 -16l-53 -4q-62 -5 -87.5 -27.5t-25.5 -67.5v-563q0 -116 -13 -205.5t-47.5 -170.5 t-91 -134t-148 -83.5t-214.5 -30.5zM829 1677l127 -106l-294 -119q-61 -25 -89 -25t-28 31q0 22 30 43z" />
<glyph unicode="&#xdb;" horiz-adv-x="1353" d="M657 -20q-61 0 -120.5 11.5t-125.5 46t-115 88t-81.5 146t-32.5 211.5v688q0 47 -24.5 66.5t-85.5 24.5l-56 4q-16 0 -16 16v39l4 2q178 -2 258 -2l264 2l4 -2v-39q0 -16 -16 -16l-53 -4q-62 -5 -87.5 -26t-25.5 -65v-620q0 -54 1 -82.5t6.5 -78t16 -82.5t32.5 -72 t53 -70q105 -103 243 -103q63 0 115.5 12t90 35t66 51.5t47 68t30.5 77t18 85.5t8 87t2 88v600q0 48 -24 69t-86 26l-56 4q-16 0 -16 16v39l4 2q145 -2 225 -2l226 2l4 -2v-39q0 -16 -17 -16l-53 -4q-62 -5 -87.5 -27.5t-25.5 -67.5v-563q0 -116 -13 -205.5t-47.5 -170.5 t-91 -134t-148 -83.5t-214.5 -30.5zM758 1649q83 -101 207 -193l-33 -43q-128 59 -217 127q-102 -74 -219 -127l-29 43q84 63 203 193h88z" />
<glyph unicode="&#xdc;" horiz-adv-x="1353" d="M475 1407q0 38 27 65t65 27t64 -27t26 -65t-26 -65t-64 -27t-65 27t-27 65zM770 1407q0 37 26.5 64.5t63.5 27.5q38 0 66 -27.5t28 -64.5q0 -38 -28 -66t-66 -28q-37 0 -63.5 28t-26.5 66zM655 -25q-61 0 -119.5 11.5t-125 46t-115 88t-81 146t-32.5 212.5v692 q0 29 -12 49t-34 29.5t-44.5 13t-52.5 3.5q-19 0 -19 16v39l5 2q155 -2 235 -2q37 0 94.5 1t94.5 1q12 0 12 -20v-21q0 -16 -17 -16q-59 -9 -78.5 -32t-19.5 -69v-618q0 -65 2.5 -104t12 -95t33.5 -101.5t63 -84.5q101 -103 243 -103q72 0 129 16.5t96 43t67.5 67.5t44.5 82 t25.5 95.5t12 99t2.5 100.5v602q0 47 -22 68t-76 33q-16 0 -16 16v23q0 8 6 13t12 5q24 0 62 -1t81 -1l205 2l4 -2v-39q0 -10 -11.5 -13t-39.5 -3q-60 0 -85.5 -24.5t-25.5 -70.5v-571q0 -116 -13 -205.5t-47.5 -171t-91.5 -134t-148.5 -83.5t-215.5 -31z" />
<glyph unicode="&#xdd;" horiz-adv-x="1175" d="M520 147v383q0 61 -18 88l-297 502q-53 87 -80 113t-80 31l-25 2q-20 0 -20 14v41l2 2q191 -2 217 -2l236 2l2 -2v-39q0 -16 -13 -16l-59 -2q-21 -1 -33 -5t-16.5 -9.5t-1.5 -18t8 -21.5l16 -30l281 -494h4l262 494q24 47 16 63.5t-44 18.5l-62 4q-10 0 -10 14v41l2 2 q162 -2 188 -2l179 2l4 -2v-41q0 -10 -21 -14l-43 -4q-34 -3 -58 -18t-35.5 -31.5t-33.5 -55.5l-289 -522q-14 -32 -14 -86v-402q0 -48 26.5 -70t86.5 -22h55q16 0 16 -16v-39l-4 -4q-178 4 -258 4l-264 -4l-4 4v39q0 16 16 16h54q60 0 86 23.5t26 68.5zM737 1679l127 -106 l-295 -119q-57 -24 -88 -24q-28 0 -28 30q0 22 30 43z" />
<glyph unicode="&#xde;" horiz-adv-x="1071" d="M367 981v-596q30 -10 145 -10q47 0 88.5 8.5t83 31t71 58t48 94.5t18.5 135q0 71 -17 125.5t-43.5 87t-63.5 53.5t-73 28.5t-75 7.5q-31 0 -91 -7t-91 -16zM201 1178q0 44 -25 61.5t-88 22.5l-53 4q-6 0 -11.5 4.5t-5.5 11.5v39l5 2q178 -2 258 -2l264 2l4 -2v-39 q0 -16 -17 -16l-55 -4q-62 -5 -86 -23.5t-24 -60.5v-115q73 4 184 4q109 0 192 -24.5t130.5 -61.5t77.5 -88t40 -96.5t10 -94.5t-14 -99.5t-50 -104t-88.5 -94.5t-137 -67t-189.5 -26q-114 0 -155 15v-179q0 -46 24.5 -64.5t85.5 -23.5l55 -4q17 0 17 -16v-39l-4 -4 q-178 4 -258 4l-264 -4l-5 4v39q0 16 17 16l53 4q64 5 88.5 25t24.5 63v1031z" />
<glyph unicode="&#xdf;" horiz-adv-x="1110" d="M158 150v337q0 113 23 197.5t75.5 151t146 101t226.5 34.5q70 0 176.5 -15.5t167.5 -35.5v-33l-225 -328q-7 -5 -7 -14q0 -8 11 -8q131 -6 202.5 -82.5t71.5 -188.5q0 -115 -80 -199.5t-219 -84.5q-45 0 -100 12t-74 12q-6 0 -24 -4t-25 -4q0 53 -25 225l53 4 q21 -94 61 -140t112 -46q66 0 113.5 51t47.5 168q0 19 -6 44.5t-24.5 59.5t-47 61.5t-80.5 47t-118 19.5q-2 0 -27 -5l-8 37q74 99 145.5 206t71.5 130q0 17 -60.5 33t-111.5 16q-289 0 -289 -385v-374q0 -75 78 -91l25 -4q12 -3 12 -12v-43l-2 -4q-131 4 -191 4l-200 -4 l-2 4v43q0 12 10 12l35 4q42 6 62 32t20 59z" />
<glyph unicode="&#xe0;" horiz-adv-x="1101" d="M330 336l-90 -215q-9 -23 -9 -27q0 -18 20.5 -26t63.5 -11l27 -2q4 0 8 -3.5t4 -8.5v-43l-4 -4q-170 4 -209 4l-133 -4l-4 4v43q0 5 4 8.5t8 3.5q32 4 51 9.5t41.5 25t38.5 53.5l361 775q10 23 30 38t35 15q61 0 82 -51l299 -764q25 -59 50 -77.5t77 -23.5q17 -2 17 -12 v-43l-6 -4q-109 4 -170 4l-230 -4l-4 4v43q0 12 14 12l37 4q43 6 62.5 13.5t19.5 25.5q0 7 -4 23l-92 237h-350q-39 0 -45 -22zM700 418l-161 403h-2l-156 -375q0 -8 1.5 -12.5t11 -10t28.5 -5.5h278zM598 1376l143 -258q13 -24 13 -49q0 -8 -9.5 -15t-21.5 -7q-16 0 -59 40 l-234 224l4 22q61 47 133 47q15 0 31 -4z" />
<glyph unicode="&#xe1;" horiz-adv-x="1101" d="M330 336l-90 -215q-9 -23 -9 -27q0 -18 20.5 -26t63.5 -11l27 -2q4 0 8 -3.5t4 -8.5v-43l-4 -4q-170 4 -209 4l-133 -4l-4 4v43q0 5 4 8.5t8 3.5q32 4 51 9.5t41.5 25t38.5 53.5l361 775q10 23 30 38t35 15q61 0 82 -51l299 -764q25 -59 50 -77.5t77 -23.5q17 -2 17 -12 v-43l-6 -4q-109 4 -170 4l-230 -4l-4 4v43q0 12 14 12l37 4q43 6 62.5 13.5t19.5 25.5q0 7 -4 23l-92 237h-350q-39 0 -45 -22zM700 418l-161 403h-2l-156 -375q0 -8 1.5 -12.5t11 -10t28.5 -5.5h278zM623 1364q12 4 28 4q59 0 101 -37q8 -8 12 -10l6 -23l-235 -223 q-41 -41 -60 -41q-10 0 -19.5 8t-9.5 17q0 26 13 47z" />
<glyph unicode="&#xe2;" horiz-adv-x="1101" d="M330 336l-90 -215q-9 -23 -9 -27q0 -18 20.5 -26t63.5 -11l27 -2q4 0 8 -3.5t4 -8.5v-43l-4 -4q-170 4 -209 4l-133 -4l-4 4v43q0 5 4 8.5t8 3.5q32 4 51 9.5t41.5 25t38.5 53.5l361 775q10 23 30 38t35 15q61 0 82 -51l299 -764q25 -59 50 -77.5t77 -23.5q17 -2 17 -12 v-43l-6 -4q-109 4 -170 4l-230 -4l-4 4v43q0 12 14 12l37 4q43 6 62.5 13.5t19.5 25.5q0 7 -4 23l-92 237h-350q-39 0 -45 -22zM700 418l-161 403h-2l-156 -375q0 -8 1.5 -12.5t11 -10t28.5 -5.5h278zM641 1333q67 -109 207 -264l-43 -29q-148 111 -217 185 q-86 -88 -219 -185l-41 29q150 169 211 264h102z" />
<glyph unicode="&#xe3;" horiz-adv-x="1101" d="M330 336l-90 -215q-9 -23 -9 -27q0 -18 20.5 -26t63.5 -11l27 -2q4 0 8 -3.5t4 -8.5v-43l-4 -4q-170 4 -209 4l-133 -4l-4 4v43q0 5 4 8.5t8 3.5q32 4 51 9.5t41.5 25t38.5 53.5l361 775q10 23 30 38t35 15q61 0 82 -51l299 -764q25 -59 50 -77.5t77 -23.5q17 -2 17 -12 v-43l-6 -4q-109 4 -170 4l-230 -4l-4 4v43q0 12 14 12l37 4q43 6 62.5 13.5t19.5 25.5q0 7 -4 23l-92 237h-350q-39 0 -45 -22zM700 418l-161 403h-2l-156 -375q0 -8 1.5 -12.5t11 -10t28.5 -5.5h278zM725 1169q36 0 59 22.5t43 84.5l50 -12q-38 -185 -179 -185 q-51 0 -131 54q-76 45 -110 45q-39 0 -62 -23t-39 -76l-49 11q22 93 61 137.5t103 44.5q67 0 147 -58q62 -45 107 -45z" />
<glyph unicode="&#xe4;" horiz-adv-x="1101" d="M659 1174q0 38 28 65t67 27q38 0 65 -27t27 -65q0 -39 -27 -67t-65 -28q-39 0 -67 28t-28 67zM332 1174q0 38 27 65t65 27t66 -27t28 -65q0 -39 -28 -67t-66 -28t-65 28t-27 67zM330 336l-90 -215q-9 -23 -9 -27q0 -18 20.5 -26t63.5 -11l27 -2q4 0 8 -3.5t4 -8.5v-43 l-4 -4q-170 4 -209 4l-133 -4l-4 4v43q0 5 4 8.5t8 3.5q32 4 51 9.5t41.5 25t38.5 53.5l361 775q10 23 30 38t35 15q61 0 82 -51l299 -764q25 -59 50 -77.5t77 -23.5q17 -2 17 -12v-43l-6 -4q-109 4 -170 4l-230 -4l-4 4v43q0 12 14 12l37 4q43 6 62.5 13.5t19.5 25.5 q0 7 -4 23l-92 237h-350q-39 0 -45 -22zM700 418l-161 403h-2l-156 -375q0 -8 1.5 -12.5t11 -10t28.5 -5.5h278z" />
<glyph unicode="&#xe5;" horiz-adv-x="1101" d="M330 336l-90 -215q-9 -23 -9 -27q0 -18 20.5 -26t63.5 -11l27 -2q4 0 8 -3.5t4 -8.5v-43l-4 -4q-170 4 -209 4l-133 -4l-4 4v43q0 5 4 8.5t8 3.5q32 4 51 9.5t41.5 25t38.5 53.5l361 775q10 23 30 38t35 15q61 0 82 -51l299 -764q25 -59 50 -77.5t77 -23.5q17 -2 17 -12 v-43l-6 -4q-109 4 -170 4l-230 -4l-4 4v43q0 12 14 12l37 4q43 6 62.5 13.5t19.5 25.5q0 7 -4 23l-92 237h-350q-39 0 -45 -22zM700 418l-161 403h-2l-156 -375q0 -8 1.5 -12.5t11 -10t28.5 -5.5h278zM588 1305q-47 0 -79 -34t-32 -81q0 -44 32 -79.5t79 -35.5q46 0 78 35.5 t32 79.5q0 47 -33 81t-77 34zM412 1190q0 70 51.5 120t122.5 50t123.5 -49.5t52.5 -120.5q0 -69 -51.5 -119.5t-124.5 -50.5q-71 0 -122.5 50t-51.5 120z" />
<glyph unicode="&#xe6;" horiz-adv-x="1415" d="M1034 70q86 0 131 48t72 136l53 -6q-41 -171 -43 -248h-491l-203 -4l-2 4v45q0 10 10 10l35 4q49 7 66.5 21t17.5 45v317h-229q-47 0 -60 -26l-147 -295q-14 -26 2 -39t65 -23l21 -4q12 -4 12 -12v-43l-2 -2q-168 2 -207 2l-123 -2l-2 2v43q0 12 13 12q88 8 122 70 q67 105 199 362q150 300 150 357q0 19 -15 30t-53 15q-12 2 -12 8v43l4 6q180 -4 336 -4h491q2 -84 31 -246l-51 -8q-9 29 -16.5 49t-23.5 48t-35 45t-49.5 29.5t-68.5 12.5h-143q-60 0 -60 -47v-319h125q39 0 55.5 15.5t24.5 49.5l10 43q4 13 13 13h35q6 0 6 -6 q-1 -16 -5 -47.5t-6 -58t-2 -48.5q0 -35 13 -141l-4 -4h-37q-10 0 -15 10l-8 45q-8 34 -24.5 48.5t-55.5 14.5h-125v-319q0 -51 60 -51h145zM565 805l-121 -279q-4 -8 -4 -10q0 -10 41 -10h199v295q0 44 -11 57.5t-34 13.5q-39 0 -70 -67z" />
<glyph unicode="&#xe7;" horiz-adv-x="1007" d="M553 -164q-52 0 -92 -12l-12 12l63 141q-102 10 -186.5 55.5t-138 113t-82.5 148.5t-29 165q0 222 137.5 367t341.5 145q93 0 199.5 -18.5t134.5 -18.5q2 -111 24 -262l-53 -6q-19 113 -92 179t-201 66q-49 0 -92.5 -11.5t-87 -42t-74.5 -77.5t-50 -124.5t-19 -176.5 q0 -64 10.5 -123.5t35 -117t61.5 -99.5t95 -68t129 -26q101 0 166 33.5t138 118.5l41 -33q-71 -96 -149.5 -140.5t-188.5 -48.5l-33 -79q24 6 53 6q63 0 104.5 -35t41.5 -92q0 -65 -62.5 -105.5t-157.5 -40.5q-70 0 -151 35l20 45q78 -28 119 -28q50 0 86.5 22t36.5 61 q0 32 -25 52t-61 20z" />
<glyph unicode="&#xe8;" horiz-adv-x="929" d="M801 942q2 -103 28 -246l-51 -6q-9 35 -20.5 61t-32.5 56.5t-56 47.5t-81 17h-164q-31 0 -45 -9t-14 -34v-303h153q40 0 56.5 16t23.5 50l12 43q0 10 13 10h34q5 0 5 -6q-13 -117 -13 -152q0 -19 13 -141l-5 -4h-34q-15 0 -15 10l-10 45q-6 33 -24 48.5t-56 15.5h-153 v-342q0 -28 14.5 -38.5t44.5 -10.5h176q86 0 130 47.5t73 138.5l51 -6q-37 -147 -43 -250h-541l-202 -4l-2 4v45q0 10 12 10l47 4q47 5 64.5 19t17.5 45v698q0 34 -18.5 47.5t-63.5 16.5l-47 4q-12 2 -12 8v45l2 4l204 -4h148h381zM469 1397l143 -258q13 -25 13 -49 q0 -8 -9.5 -15.5t-21.5 -7.5q-17 0 -59 41l-234 223l4 23q67 47 133 47q15 0 31 -4z" />
<glyph unicode="&#xe9;" horiz-adv-x="929" d="M530 1358q14 4 29 4q58 0 100 -37q12 -9 13 -10l6 -23l-236 -223q-40 -41 -59 -41q-11 0 -20 7.5t-9 17.5q0 26 13 47zM801 942q2 -103 28 -246l-51 -6q-9 35 -20.5 61t-32.5 56.5t-56 47.5t-81 17h-164q-31 0 -45 -9t-14 -34v-303h153q40 0 56.5 16t23.5 50l12 43 q0 10 13 10h34q5 0 5 -6q-13 -117 -13 -152q0 -19 13 -141l-5 -4h-34q-15 0 -15 10l-10 45q-6 33 -24 48.5t-56 15.5h-153v-342q0 -28 14.5 -38.5t44.5 -10.5h176q86 0 130 47.5t73 138.5l51 -6q-37 -147 -43 -250h-541l-202 -4l-2 4v45q0 10 12 10l47 4q47 5 64.5 19 t17.5 45v698q0 34 -18.5 47.5t-63.5 16.5l-47 4q-12 2 -12 8v45l2 4l204 -4h148h381z" />
<glyph unicode="&#xea;" horiz-adv-x="929" d="M801 942q2 -103 28 -246l-51 -6q-9 35 -20.5 61t-32.5 56.5t-56 47.5t-81 17h-164q-31 0 -45 -9t-14 -34v-303h153q40 0 56.5 16t23.5 50l12 43q0 10 13 10h34q5 0 5 -6q-13 -117 -13 -152q0 -19 13 -141l-5 -4h-34q-15 0 -15 10l-10 45q-6 33 -24 48.5t-56 15.5h-153 v-342q0 -28 14.5 -38.5t44.5 -10.5h176q86 0 130 47.5t73 138.5l51 -6q-37 -147 -43 -250h-541l-202 -4l-2 4v45q0 10 12 10l47 4q47 5 64.5 19t17.5 45v698q0 34 -18.5 47.5t-63.5 16.5l-47 4q-12 2 -12 8v45l2 4l204 -4h148h381zM553 1331q67 -109 207 -264l-43 -29 q-148 111 -217 185q-86 -88 -219 -185l-41 29q150 169 211 264h102z" />
<glyph unicode="&#xeb;" horiz-adv-x="929" d="M573 1176q0 38 28 65t67 27q38 0 65 -27t27 -65q0 -39 -27 -67t-65 -28q-39 0 -67 28t-28 67zM246 1176q0 38 27 65t65 27t66 -27t28 -65q0 -39 -28 -67t-66 -28t-65 28t-27 67zM801 942q2 -103 28 -246l-51 -6q-9 35 -20.5 61t-32.5 56.5t-56 47.5t-81 17h-164 q-31 0 -45 -9t-14 -34v-303h153q40 0 56.5 16t23.5 50l12 43q0 10 13 10h34q5 0 5 -6q-13 -117 -13 -152q0 -19 13 -141l-5 -4h-34q-15 0 -15 10l-10 45q-6 33 -24 48.5t-56 15.5h-153v-342q0 -28 14.5 -38.5t44.5 -10.5h176q86 0 130 47.5t73 138.5l51 -6 q-37 -147 -43 -250h-541l-202 -4l-2 4v45q0 10 12 10l47 4q47 5 64.5 19t17.5 45v698q0 34 -18.5 47.5t-63.5 16.5l-47 4q-12 2 -12 8v45l2 4l204 -4h148h381z" />
<glyph unicode="&#xec;" horiz-adv-x="571" d="M367 819v-682q0 -35 19 -54t67 -24l43 -4q12 0 12 -12v-43l-2 -4q-156 4 -219 4l-217 -4l-4 4v43q0 12 14 12l41 4q88 9 88 78v682q0 33 -20 47t-68 19l-41 4q-14 0 -14 8v45l2 4q161 -4 225 -4l213 4l2 -4v-43q0 -10 -12 -10l-43 -4q-47 -4 -66.5 -19.5t-19.5 -46.5z M229 1362l144 -258q12 -25 12 -49q0 -9 -9.5 -16t-21.5 -7q-15 0 -59 41l-234 223l5 23q63 47 133 47q14 0 30 -4z" />
<glyph unicode="&#xed;" horiz-adv-x="571" d="M367 819v-682q0 -35 19 -54t67 -24l43 -4q12 0 12 -12v-43l-2 -4q-156 4 -219 4l-217 -4l-4 4v43q0 12 14 12l41 4q88 9 88 78v682q0 33 -20 47t-68 19l-41 4q-14 0 -14 8v45l2 4q161 -4 225 -4l213 4l2 -4v-43q0 -10 -12 -10l-43 -4q-47 -4 -66.5 -19.5t-19.5 -46.5z M354 1358q12 4 29 4q58 0 100 -37q7 -7 13 -10l6 -23l-236 -223q-40 -41 -59 -41q-11 0 -20 7.5t-9 17.5q0 26 12 47z" />
<glyph unicode="&#xee;" horiz-adv-x="571" d="M367 819v-682q0 -35 19 -54t67 -24l43 -4q12 0 12 -12v-43l-2 -4q-156 4 -219 4l-217 -4l-4 4v43q0 12 14 12l41 4q88 9 88 78v682q0 33 -20 47t-68 19l-41 4q-14 0 -14 8v45l2 4q161 -4 225 -4l213 4l2 -4v-43q0 -10 -12 -10l-43 -4q-47 -4 -66.5 -19.5t-19.5 -46.5z M340 1333q67 -109 207 -264l-43 -29q-148 111 -217 185q-86 -88 -219 -185l-41 29q150 169 211 264h102z" />
<glyph unicode="&#xef;" horiz-adv-x="571" d="M367 819v-682q0 -35 19 -54t67 -24l43 -4q12 0 12 -12v-43l-2 -4q-156 4 -219 4l-217 -4l-4 4v43q0 12 14 12l41 4q88 9 88 78v682q0 33 -20 47t-68 19l-41 4q-14 0 -14 8v45l2 4q161 -4 225 -4l213 4l2 -4v-43q0 -10 -12 -10l-43 -4q-47 -4 -66.5 -19.5t-19.5 -46.5z M348 1176q0 38 28 65t66 27q39 0 66 -27t27 -65q0 -39 -27 -67t-66 -28q-38 0 -66 28t-28 67zM20 1176q0 38 27 65t66 27q38 0 66 -27t28 -65q0 -39 -28 -67t-66 -28q-39 0 -66 28t-27 67z" />
<glyph unicode="&#xf0;" horiz-adv-x="1148" d="M66 43q0 12 12 12l47 4q46 5 64 24.5t18 66.5v276h-146v80h146v313q0 39 -15 50t-67 16l-45 4q-14 0 -14 10v43l2 4l200 -4q218 4 287 4q113 0 209 -37.5t161.5 -102.5t102.5 -154.5t37 -190.5q0 -104 -28.5 -186t-75 -133.5t-110.5 -85t-129.5 -47t-137.5 -13.5 q-95 0 -197.5 2t-118.5 2l-200 -4l-2 4v43zM365 145q0 -19 2.5 -31.5t12.5 -25t28 -19.5t49.5 -11.5t77.5 -4.5q180 0 272 84t92 289q0 463 -403 463q-68 0 -99.5 -11t-31.5 -47v-325h124v-80h-124v-281z" />
<glyph unicode="&#xf1;" horiz-adv-x="1169" d="M983 795v-764q0 -56 -41 -56q-22 0 -38.5 10t-41.5 35l-481 642q-41 49 -55 49q-21 0 -21 -72v-494q0 -35 23.5 -58t68.5 -28l41 -4q15 0 15 -12v-43l-2 -4q-125 4 -189 4l-190 -4l-6 4v43q0 12 20 12l41 4q88 9 88 86v668q-18 33 -45 52.5t-80 23.5q-18 0 -18 12v39l4 6 l276 -4l469 -637q43 -49 58 -49q14 0 14 53v486q0 33 -23.5 59.5t-66.5 30.5l-43 4q-21 0 -21 10v43l4 4q140 -4 195 -4l182 4l6 -2v-45q0 -10 -14 -10l-41 -4q-88 -8 -88 -90zM768 1169q36 0 59 22.5t43 84.5l50 -12q-38 -185 -179 -185q-51 0 -131 54q-76 45 -110 45 q-39 0 -62 -23t-39 -76l-49 11q22 93 61 137.5t103 44.5q66 0 148 -58q60 -45 106 -45z" />
<glyph unicode="&#xf2;" horiz-adv-x="1136" d="M553 899q-59 0 -113 -27.5t-98 -78t-70 -132.5t-26 -182q0 -189 95.5 -311.5t244.5 -122.5q138 0 222.5 110.5t84.5 297.5q0 199 -99.5 322.5t-240.5 123.5zM1063 481q0 -101 -33 -191.5t-94.5 -161t-160 -112t-220.5 -41.5q-207 0 -343 135.5t-136 344.5 q0 225 140.5 370.5t354.5 145.5q133 0 245 -61t179.5 -174t67.5 -255zM543 1368l143 -258q12 -24 12 -49q0 -8 -9 -15.5t-21 -7.5q-15 0 -60 41l-233 224l4 22q63 47 133 47q15 0 31 -4z" />
<glyph unicode="&#xf3;" horiz-adv-x="1136" d="M553 899q-59 0 -113 -27.5t-98 -78t-70 -132.5t-26 -182q0 -189 95.5 -311.5t244.5 -122.5q138 0 222.5 110.5t84.5 297.5q0 199 -99.5 322.5t-240.5 123.5zM1063 481q0 -101 -33 -191.5t-94.5 -161t-160 -112t-220.5 -41.5q-207 0 -343 135.5t-136 344.5 q0 225 140.5 370.5t354.5 145.5q133 0 245 -61t179.5 -174t67.5 -255zM633 1358q12 4 29 4q55 0 100 -37q8 -8 12 -10l6 -23l-235 -223q-41 -41 -60 -41q-11 0 -19.5 7.5t-8.5 17.5q0 26 12 47z" />
<glyph unicode="&#xf4;" horiz-adv-x="1136" d="M553 899q-59 0 -113 -27.5t-98 -78t-70 -132.5t-26 -182q0 -189 95.5 -311.5t244.5 -122.5q138 0 222.5 110.5t84.5 297.5q0 199 -99.5 322.5t-240.5 123.5zM1063 481q0 -101 -33 -191.5t-94.5 -161t-160 -112t-220.5 -41.5q-207 0 -343 135.5t-136 344.5 q0 225 140.5 370.5t354.5 145.5q133 0 245 -61t179.5 -174t67.5 -255zM633 1325q67 -109 207 -264l-43 -29q-148 111 -217 185q-93 -95 -220 -185l-41 29q149 165 211 264h103z" />
<glyph unicode="&#xf5;" horiz-adv-x="1136" d="M553 899q-59 0 -113 -27.5t-98 -78t-70 -132.5t-26 -182q0 -189 95.5 -311.5t244.5 -122.5q138 0 222.5 110.5t84.5 297.5q0 199 -99.5 322.5t-240.5 123.5zM1063 481q0 -101 -33 -191.5t-94.5 -161t-160 -112t-220.5 -41.5q-207 0 -343 135.5t-136 344.5 q0 225 140.5 370.5t354.5 145.5q133 0 245 -61t179.5 -174t67.5 -255zM694 1169q36 0 59 22.5t44 84.5l49 -12q-38 -185 -178 -185q-51 0 -131 54q-76 45 -111 45q-39 0 -62 -23.5t-38 -75.5l-50 11q22 93 61 137.5t103 44.5q66 0 148 -58q62 -45 106 -45z" />
<glyph unicode="&#xf6;" horiz-adv-x="1136" d="M553 899q-59 0 -113 -27.5t-98 -78t-70 -132.5t-26 -182q0 -189 95.5 -311.5t244.5 -122.5q138 0 222.5 110.5t84.5 297.5q0 199 -99.5 322.5t-240.5 123.5zM1063 481q0 -101 -33 -191.5t-94.5 -161t-160 -112t-220.5 -41.5q-207 0 -343 135.5t-136 344.5 q0 225 140.5 370.5t354.5 145.5q133 0 245 -61t179.5 -174t67.5 -255zM647 1174q0 38 28 65t66 27q39 0 66 -27t27 -65q0 -39 -27 -67t-66 -28q-38 0 -66 28t-28 67zM319 1174q0 38 27 65t66 27q38 0 66 -27t28 -65q0 -39 -28 -67t-66 -28q-39 0 -66 28t-27 67z" />
<glyph unicode="&#xf7;" horiz-adv-x="1079" d="M944 526v-100h-809v100h809zM453 201q0 37 26.5 63.5t63.5 26.5q38 0 65 -26.5t27 -63.5t-27 -63.5t-65 -26.5q-37 0 -63.5 26.5t-26.5 63.5zM453 750q0 37 26.5 63.5t63.5 26.5q38 0 65 -26.5t27 -63.5q0 -38 -27 -64.5t-65 -26.5q-37 0 -63.5 27t-26.5 64z" />
<glyph unicode="&#xf8;" horiz-adv-x="1136" d="M553 899q-59 0 -113 -27.5t-98 -78t-70 -132.5t-26 -182q0 -182 86 -299l440 621q-92 98 -219 98zM1063 481q0 -101 -33 -191.5t-94.5 -161t-160 -112t-220.5 -41.5q-134 0 -242 60l-90 -129l-59 39l90 129q-84 64 -131 162.5t-47 218.5q0 225 140.5 370.5t354.5 145.5 q148 0 269 -76l80 115l59 -39l-82 -117q77 -67 121.5 -163t44.5 -210zM817 743l-438 -616q88 -82 207 -82q138 0 222.5 110.5t84.5 297.5q0 169 -76 290z" />
<glyph unicode="&#xf9;" horiz-adv-x="1144" d="M563 -20q-45 0 -92.5 11.5t-98 41t-90 72.5t-64.5 112t-25 154v448q0 33 -19 46.5t-70 19.5l-36 4q-13 0 -13 10v43l2 4q156 -4 219 -4l213 4l3 -4v-43q0 -10 -13 -10l-41 -4q-48 -4 -68 -19.5t-20 -46.5v-405q0 -64 4.5 -113t20 -101t41.5 -85t72.5 -54.5t109.5 -21.5 q199 0 250 165q22 71 22 228v387q0 33 -20 47t-68 19l-41 4q-14 0 -14 10v43l4 4q123 -4 184 -4l172 4l3 -4v-43q0 -10 -13 -10l-35 -4q-46 -6 -62.5 -20t-16.5 -46v-360q0 -91 -10 -160t-36 -131t-70.5 -102t-115.5 -63t-168 -23zM549 1368l143 -258q13 -26 13 -49 q0 -8 -9.5 -15.5t-21.5 -7.5q-15 0 -60 41l-233 224l4 22q63 47 133 47q15 0 31 -4z" />
<glyph unicode="&#xfa;" horiz-adv-x="1144" d="M702 1358q14 4 29 4q58 0 100 -37q12 -9 13 -10l6 -23l-236 -223q-40 -41 -59 -41q-11 0 -20 7.5t-9 17.5q0 26 13 47zM563 -20q-45 0 -92.5 11.5t-98 41t-90 72.5t-64.5 112t-25 154v448q0 33 -19 46.5t-70 19.5l-36 4q-13 0 -13 10v43l2 4q156 -4 219 -4l213 4l3 -4 v-43q0 -10 -13 -10l-41 -4q-48 -4 -68 -19.5t-20 -46.5v-405q0 -64 4.5 -113t20 -101t41.5 -85t72.5 -54.5t109.5 -21.5q199 0 250 165q22 71 22 228v387q0 33 -20 47t-68 19l-41 4q-14 0 -14 10v43l4 4q123 -4 184 -4l172 4l3 -4v-43q0 -10 -13 -10l-35 -4 q-46 -6 -62.5 -20t-16.5 -46v-360q0 -91 -10 -160t-36 -131t-70.5 -102t-115.5 -63t-168 -23z" />
<glyph unicode="&#xfb;" horiz-adv-x="1144" d="M563 -20q-45 0 -92.5 11.5t-98 41t-90 72.5t-64.5 112t-25 154v448q0 33 -19 46.5t-70 19.5l-36 4q-13 0 -13 10v43l2 4q156 -4 219 -4l213 4l3 -4v-43q0 -10 -13 -10l-41 -4q-48 -4 -68 -19.5t-20 -46.5v-405q0 -64 4.5 -113t20 -101t41.5 -85t72.5 -54.5t109.5 -21.5 q199 0 250 165q22 71 22 228v387q0 33 -20 47t-68 19l-41 4q-14 0 -14 10v43l4 4q123 -4 184 -4l172 4l3 -4v-43q0 -10 -13 -10l-35 -4q-46 -6 -62.5 -20t-16.5 -46v-360q0 -91 -10 -160t-36 -131t-70.5 -102t-115.5 -63t-168 -23zM662 1323q65 -105 206 -264l-43 -29 q-144 108 -217 184q-96 -97 -219 -184l-41 29q149 165 211 264h103z" />
<glyph unicode="&#xfc;" horiz-adv-x="1144" d="M563 -20q-45 0 -92.5 11.5t-98 41t-90 72.5t-64.5 112t-25 154v448q0 33 -19 46.5t-70 19.5l-36 4q-13 0 -13 10v43l2 4q156 -4 219 -4l213 4l3 -4v-43q0 -10 -13 -10l-41 -4q-48 -4 -68 -19.5t-20 -46.5v-405q0 -64 4.5 -113t20 -101t41.5 -85t72.5 -54.5t109.5 -21.5 q199 0 250 165q22 71 22 228v387q0 33 -20 47t-68 19l-41 4q-14 0 -14 10v43l4 4q123 -4 184 -4l172 4l3 -4v-43q0 -10 -13 -10l-35 -4q-46 -6 -62.5 -20t-16.5 -46v-360q0 -91 -10 -160t-36 -131t-70.5 -102t-115.5 -63t-168 -23zM690 1174q0 38 28 65t66 27q39 0 66 -27 t27 -65q0 -39 -27 -67t-66 -28q-38 0 -66 28t-28 67zM362 1174q0 38 27 65t66 27q38 0 66 -27t28 -65q0 -39 -28 -67t-66 -28q-39 0 -66 28t-27 67z" />
<glyph unicode="&#xfd;" horiz-adv-x="980" d="M418 125v276l-258 424q-20 31 -46.5 45t-72.5 19q-16 0 -16 10v43l4 4q8 0 82 -2t86 -2q158 0 206 4l3 -2v-45q0 -3 -3.5 -6.5t-7.5 -3.5l-45 -4q-34 -3 -36.5 -18t16.5 -40l207 -338h4l190 338q21 37 17.5 46t-39.5 12l-47 4q-9 0 -9 10v45l4 2q12 0 80 -2t78 -2 q79 0 139 4l2 -4v-43q0 -8 -14 -10l-35 -4q-46 -6 -64 -20t-42 -58l-226 -397v-285q0 -33 19 -47t68 -19l43 -4q14 0 14 -12v-43l-4 -4q-156 4 -219 4l-217 -4l-5 4v43q0 5 4.5 8.5t10.5 3.5l41 4q47 5 67.5 20t20.5 46zM614 1370q14 4 29 4q61 0 100 -37q12 -9 13 -10 l6 -22l-236 -224q-41 -41 -59 -41q-10 0 -19.5 8t-9.5 17q0 27 13 47z" />
<glyph unicode="&#xfe;" horiz-adv-x="921" d="M344 760q106 4 152 4q88 0 156 -19t106 -47.5t62 -67.5t32 -73t8 -70t-11.5 -73t-40 -76.5t-70.5 -69.5t-111 -49.5t-154 -19.5q-95 0 -129 10v-80q0 -44 11.5 -55.5t50.5 -14.5l49 -4q14 0 14 -12v-43l-2 -4q-154 4 -203 4q-127 0 -201 -4l-4 4v43q4 12 15 12l49 4 q41 3 52 16t11 54v688q0 39 -12.5 52t-50.5 16l-49 4q-15 0 -15 10v43l4 4q125 -4 199 -4l205 4l2 -4v-43q0 -10 -12 -10l-51 -4q-19 -2 -27 -4t-18 -8.5t-13.5 -19.5t-3.5 -36v-57zM344 684v-416q21 -8 121 -8q117 0 174 54.5t57 174.5q0 111 -51 161t-151 50 q-76 0 -150 -16z" />
<glyph unicode="&#xff;" horiz-adv-x="980" d="M418 125v276l-258 424q-20 31 -46.5 45t-72.5 19q-16 0 -16 10v43l4 4q8 0 82 -2t86 -2q158 0 206 4l3 -2v-45q0 -3 -3.5 -6.5t-7.5 -3.5l-45 -4q-34 -3 -36.5 -18t16.5 -40l207 -338h4l190 338q21 37 17.5 46t-39.5 12l-47 4q-9 0 -9 10v45l4 2q12 0 80 -2t78 -2 q79 0 139 4l2 -4v-43q0 -8 -14 -10l-35 -4q-46 -6 -64 -20t-42 -58l-226 -397v-285q0 -33 19 -47t68 -19l43 -4q14 0 14 -12v-43l-4 -4q-156 4 -219 4l-217 -4l-5 4v43q0 5 4.5 8.5t10.5 3.5l41 4q47 5 67.5 20t20.5 46zM600 1174q0 38 28 65t66 27t65 -27t27 -65 q0 -39 -27 -67t-65 -28t-66 28t-28 67zM272 1174q0 38 27 65t66 27q38 0 66 -27t28 -65q0 -39 -28 -67t-66 -28q-39 0 -66 28t-27 67z" />
<glyph unicode="&#x152;" horiz-adv-x="1738" d="M688 66h27q60 0 82 18.5t22 62.5v1029q0 46 -21.5 60.5t-82.5 14.5h-72q-78 0 -142.5 -30t-117 -95t-82 -181t-29.5 -275q0 -153 35 -272t94.5 -190t132 -106.5t154.5 -35.5zM692 0q-141 0 -256.5 50t-191.5 137.5t-117 206.5t-41 257q0 140 38.5 261t110 213t184 145 t251.5 53l233 -2l160 2h526l29 -287l-55 -6q-8 47 -31.5 93.5t-66.5 82t-93 35.5h-313q-38 0 -56 -14.5t-18 -50.5v-426h215q52 0 72 20.5t33 69.5l14 61q0 6 4 11.5t10 5.5h45q6 0 6 -9q-1 -21 -8.5 -88.5t-7.5 -105.5q0 -32 2.5 -64t7.5 -73l6 -60l-4 -6h-47q-16 0 -16 14 l-12 64q-11 47 -33.5 68.5t-71.5 21.5h-215v-533q0 -39 18.5 -53t55.5 -14h321q94 0 146.5 67.5t77.5 190.5l55 -10l-53 -328h-545l-160 2z" />
<glyph unicode="&#x153;" horiz-adv-x="1390" d="M578 53q51 0 69.5 15.5t18.5 52.5v704q0 23 -9 36.5t-30 20t-42.5 8t-60.5 1.5q-60 0 -111.5 -22t-95 -68t-68 -128.5t-24.5 -193.5q0 -207 95.5 -316.5t257.5 -109.5zM1260 942l28 -227l-51 -6q-32 163 -158 163h-200q-64 0 -64 -47v-309h164q38 0 55 16t25 50l10 43 q4 12 12 12h35q6 0 6 -6q-12 -141 -12 -154q0 -43 12 -141l-4 -4h-37q-9 0 -14 10l-8 45q-6 33 -24 48.5t-56 15.5h-164v-332q0 -49 64 -49h229q75 0 116 43.5t60 128.5l51 -6l-41 -236h-413h-133q-44 0 -116 -2t-85 -2q-139 0 -249 54t-174.5 159.5t-64.5 245.5 q0 216 135 353.5t351 137.5q1 0 34.5 -1t80.5 -2t81 -1h519z" />
<glyph unicode="&#x178;" horiz-adv-x="1175" d="M520 147v383q0 61 -18 88l-297 502q-53 87 -80 113t-80 31l-25 2q-20 0 -20 14v41l2 2q191 -2 217 -2l236 2l2 -2v-39q0 -16 -13 -16l-59 -2q-21 -1 -33 -5t-16.5 -9.5t-1.5 -18t8 -21.5l16 -30l281 -494h4l262 494q24 47 16 63.5t-44 18.5l-62 4q-10 0 -10 14v41l2 2 q162 -2 188 -2l179 2l4 -2v-41q0 -10 -21 -14l-43 -4q-34 -3 -58 -18t-35.5 -31.5t-33.5 -55.5l-289 -522q-14 -32 -14 -86v-402q0 -48 26.5 -70t86.5 -22h55q16 0 16 -16v-39l-4 -4q-178 4 -258 4l-264 -4l-4 4v39q0 16 16 16h54q60 0 86 23.5t26 68.5zM696 1538 q0 38 28 65t67 27q38 0 65 -27t27 -65t-27 -66t-65 -28q-39 0 -67 28t-28 66zM369 1538q0 38 27 65t65 27t66 -27t28 -65t-28 -66t-66 -28t-65 28t-27 66z" />
<glyph unicode="&#x2c6;" horiz-adv-x="714" d="M416 1368q67 -109 207 -264l-43 -29q-148 111 -218 185q-91 -95 -219 -185l-41 29q149 165 211 264h103z" />
<glyph unicode="&#x2dc;" horiz-adv-x="598" d="M428 1266q36 0 59 22t43 84l50 -12q-37 -184 -179 -184q-52 0 -131 53q-76 45 -110 45q-39 0 -62 -23t-39 -75l-49 10q22 93 60.5 137.5t103.5 44.5t148 -57q58 -45 106 -45z" />
<glyph unicode="&#x2000;" horiz-adv-x="839" />
<glyph unicode="&#x2001;" horiz-adv-x="1679" />
<glyph unicode="&#x2002;" horiz-adv-x="839" />
<glyph unicode="&#x2003;" horiz-adv-x="1679" />
<glyph unicode="&#x2004;" horiz-adv-x="559" />
<glyph unicode="&#x2005;" horiz-adv-x="419" />
<glyph unicode="&#x2006;" horiz-adv-x="279" />
<glyph unicode="&#x2007;" horiz-adv-x="279" />
<glyph unicode="&#x2008;" horiz-adv-x="209" />
<glyph unicode="&#x2009;" horiz-adv-x="335" />
<glyph unicode="&#x200a;" horiz-adv-x="93" />
<glyph unicode="&#x2010;" horiz-adv-x="681" d="M561 444h-463q-13 0 -21.5 10.5t-8.5 24.5q0 25 16.5 50.5t34.5 25.5h469q28 0 28 -37q0 -19 -18 -46.5t-37 -27.5z" />
<glyph unicode="&#x2011;" horiz-adv-x="681" d="M561 444h-463q-13 0 -21.5 10.5t-8.5 24.5q0 25 16.5 50.5t34.5 25.5h469q28 0 28 -37q0 -19 -18 -46.5t-37 -27.5z" />
<glyph unicode="&#x2013;" horiz-adv-x="1093" d="M82 588h932v-101h-932v101z" />
<glyph unicode="&#x2014;" horiz-adv-x="1519" d="M59 588h1401v-101h-1401v101z" />
<glyph unicode="&#x2018;" horiz-adv-x="548" d="M285 1038q-61 0 -98 55.5t-37 147.5q0 102 73 174t172 90q21 -17 11 -51q-74 -19 -125.5 -72t-51.5 -90q0 -32 20 -45.5t54 -17.5q90 -15 90 -90q0 -44 -30.5 -72.5t-77.5 -28.5z" />
<glyph unicode="&#x2019;" horiz-adv-x="548" d="M266 1423q61 0 98 -55t37 -147q0 -102 -73 -174t-172 -91q-21 18 -11 52q74 18 125.5 71t51.5 90q0 33 -20 46.5t-54 17.5q-90 15 -90 90q0 43 30.5 71.5t77.5 28.5z" />
<glyph unicode="&#x201a;" horiz-adv-x="548" d="M266 195q61 0 98 -55.5t37 -147.5q0 -102 -73 -174t-172 -90q-21 17 -11 51q74 18 125.5 71.5t51.5 90.5q0 32 -20 45.5t-54 17.5q-90 15 -90 90q0 44 30.5 72.5t77.5 28.5z" />
<glyph unicode="&#x201c;" horiz-adv-x="768" d="M233 1040q-61 0 -98 55.5t-37 147.5q0 102 73.5 174t172.5 90q20 -17 10 -51q-73 -18 -124.5 -71.5t-51.5 -90.5q0 -32 20 -45.5t54 -17.5q90 -15 90 -90q0 -44 -30.5 -72.5t-78.5 -28.5zM555 1040q-61 0 -98 55.5t-37 147.5q0 102 73.5 174t172.5 90q20 -17 10 -51 q-74 -18 -125 -71t-51 -91q0 -55 73 -63q91 -15 91 -90q0 -44 -31 -72.5t-78 -28.5z" />
<glyph unicode="&#x201d;" horiz-adv-x="768" d="M537 1440q61 0 98 -55.5t37 -147.5q0 -102 -73.5 -174t-172.5 -90q-20 17 -10 51q73 19 124.5 72t51.5 90q0 32 -20 45.5t-54 17.5q-90 15 -90 90q0 44 30.5 72.5t78.5 28.5zM215 1440q61 0 98 -55.5t37 -147.5q0 -102 -73.5 -174t-172.5 -90q-20 17 -10 51q74 19 125 72 t51 90q0 56 -73 63q-91 15 -91 90q0 44 31 72.5t78 28.5z" />
<glyph unicode="&#x201e;" horiz-adv-x="768" d="M537 205q61 0 98 -55.5t37 -147.5q0 -102 -73.5 -174t-172.5 -90q-20 17 -10 51q73 19 124.5 72t51.5 90q0 32 -20 45.5t-54 17.5q-90 15 -90 90q0 44 30.5 72.5t78.5 28.5zM215 205q61 0 98 -55.5t37 -147.5q0 -102 -73.5 -174t-172.5 -90q-20 17 -10 51q74 19 125 72 t51 90q0 56 -73 63q-91 15 -91 90q0 44 31 72.5t78 28.5z" />
<glyph unicode="&#x2022;" horiz-adv-x="718" d="M100 479q0 105 78.5 180.5t179.5 75.5q105 0 182.5 -76.5t77.5 -185.5q0 -101 -72.5 -179.5t-187.5 -78.5q-106 0 -182 77t-76 187z" />
<glyph unicode="&#x2026;" horiz-adv-x="1492" d="M117 88q0 44 32 76.5t76 32.5q45 0 77 -32.5t32 -76.5t-32 -76t-77 -32q-44 0 -76 32t-32 76zM637 88q0 44 32 76.5t76 32.5q45 0 77 -32.5t32 -76.5t-32 -76t-77 -32q-44 0 -76 32t-32 76zM1161 88q0 44 32 76.5t77 32.5q44 0 76 -32.5t32 -76.5t-32 -76t-76 -32 q-45 0 -77 32t-32 76z" />
<glyph unicode="&#x202f;" horiz-adv-x="335" />
<glyph unicode="&#x2039;" horiz-adv-x="727" d="M590 881v-111q-148 -209 -287 -330q127 -101 287 -327v-111q-249 290 -451 399v80q215 148 451 400z" />
<glyph unicode="&#x203a;" horiz-adv-x="727" d="M139 0v111q151 210 287 329q-128 103 -287 328v111q249 -289 451 -400v-80q-213 -146 -451 -399z" />
<glyph unicode="&#x205f;" horiz-adv-x="419" />
<glyph unicode="&#x20ac;" horiz-adv-x="897" d="M29 631l2 20l39 49h53q28 230 145.5 364t290.5 134q57 0 144.5 -16.5t113.5 -14.5q2 -94 41 -299l-61 -10q-14 57 -31.5 100.5t-45 84t-69.5 62t-96 21.5q-77 0 -135.5 -58.5t-90.5 -152t-42 -215.5h452l-37 -69h-419v-37q0 -45 2 -68h383l-37 -69h-342q32 -396 280 -396 q28 0 51.5 5.5t43.5 18.5t35 25t30 36l24 39q9 15 21 47l19 47q6 16 18 51l61 -15q-9 -46 -39.5 -156.5t-37.5 -152.5q-27 2 -108 -14.5t-136 -16.5q-179 0 -292.5 130t-137.5 352h-121v18l41 51h74v45q0 41 2 60h-88z" />
<glyph unicode="&#x2122;" horiz-adv-x="2879" d="M2523 178l-57 916h-5l-460 -1084q-12 -22 -29 -22q-22 0 -31 22l-424 1063h-4l-86 -897q-5 -49 11.5 -81.5t58.5 -35.5l53 -4q21 0 21 -16v-37l-4 -6q-107 4 -189 4l-184 -4l-2 4v39q0 16 18 16l55 4q74 5 82 117l99 1000q5 45 -11.5 63.5t-66.5 22.5l-60 4q-20 0 -20 14 v37l6 6h301l420 -1042q9 -27 16 -27q8 0 19 29l434 1040h274l5 -6v-37q0 -14 -23 -14l-55 -4q-44 -4 -62.5 -25t-15.5 -61l72 -998q3 -57 20 -86.5t64 -32.5l55 -4q22 -3 22 -16v-39l-4 -4q-149 4 -229 4l-219 -4l-6 4v39q0 7 5.5 11.5t12.5 4.5l55 4q40 3 56 38t12 81z M158 1321h866q45 0 45 47l53 8q0 -140 27 -315l-62 -10q-14 66 -23.5 97t-27.5 55.5t-42.5 31t-67.5 6.5h-135q-57 0 -78 -17.5t-21 -68.5v-1008q0 -46 25.5 -64.5t87.5 -23.5l53 -4q19 0 19 -16v-39l-5 -4q-180 4 -260 4l-262 -4l-4 4v39q0 16 16 16l54 4q63 5 86.5 24.5 t23.5 63.5v1014q0 47 -21 63.5t-79 16.5h-170q-85 0 -117 -34t-63 -156l-62 10q30 131 45 315l56 -8q0 -47 43 -47z" />
</font>
</defs>
</svg>
